<svg xmlns="http://www.w3.org/2000/svg" width="107.485" height="107" viewBox="0 0 107.485 107">
  <g id="Group_627" data-name="Group 627" transform="translate(-60.323 -2761.185)">
    <g id="Group_626" data-name="Group 626">
      <path id="Path_1323" data-name="Path 1323" d="M113.933,2761.185h.265a7.693,7.693,0,0,1,2.882,1.152q23.759,12.617,47.522,25.23a8.027,8.027,0,0,1,2.412,1.587,3.6,3.6,0,0,1,.794,2.008v6.951a3.381,3.381,0,0,1-1.717,2.756,5.141,5.141,0,0,1-2.7.445c-3.006-.01-6.014,0-9.023,0v53.5c2.242.011,4.487-.021,6.729.013a6.737,6.737,0,0,1,6.707,6.547v3.622a3.415,3.415,0,0,1-3.216,3.193H63.552a3.415,3.415,0,0,1-3.229-3.2v-3.607a6.737,6.737,0,0,1,6.713-6.556c2.24-.034,4.482,0,6.722-.013v-53.5c-3.365-.01-6.73.019-10.093-.012a3.383,3.383,0,0,1-3.342-3.192v-6.942a3.541,3.541,0,0,1,1.973-2.94q24.436-12.989,48.883-25.958A7.188,7.188,0,0,1,113.933,2761.185Zm-1.23,13.534a6.666,6.666,0,1,0,7.753,4.535A6.71,6.71,0,0,0,112.7,2774.719ZM87.194,2801.31v53.5h53.743v-53.5Z" fill="#fff"/>
    </g>
    <path id="Path_1324" data-name="Path 1324" d="M112.827,2804.9a3.373,3.373,0,0,1,4.5,2.343,37.113,37.113,0,0,1,.094,4.1c1.529.1,3.126-.232,4.606.247a3.353,3.353,0,0,1,1.808,4.472,3.391,3.391,0,0,1-3.063,1.961c-2.236.031-4.476-.013-6.712.016a3.33,3.33,0,0,0-1.889,6.084c1.312.9,3.006.472,4.455.959a10.015,10.015,0,0,1,6.839,13.21,10.268,10.268,0,0,1-6.044,5.875c-.016,1.4.032,2.792-.021,4.185a3.348,3.348,0,0,1-6.657.2c-.09-1.256-.016-2.516-.04-3.774a36.625,36.625,0,0,1-4.114-.1,3.332,3.332,0,0,1,.756-6.581c2.313-.038,4.626.031,6.938-.032a3.328,3.328,0,0,0,.659-6.537c-.762-.169-1.547-.171-2.32-.271a10.019,10.019,0,0,1-8.17-12.836,10.212,10.212,0,0,1,6.251-6.468c.009-1.325-.016-2.65.009-3.975A3.344,3.344,0,0,1,112.827,2804.9Z" fill="#fff"/>
  </g>
</svg>
