<svg xmlns="http://www.w3.org/2000/svg" width="95.048" height="94.917" viewBox="0 0 95.048 94.917">
  <g id="Group_1401" data-name="Group 1401" transform="translate(-1193.312 -1954.599)">
    <path id="Path_3799" data-name="Path 3799" d="M1239.024,1956.207a9.819,9.819,0,0,1,2.7-.026,1.469,1.469,0,0,1,.839,2.317c-.554.732-1.574.567-2.375.6-.648-.022-1.448.068-1.9-.508A1.48,1.48,0,0,1,1239.024,1956.207Z" fill="#73b3b4" stroke="#73b3b4" stroke-miterlimit="10" stroke-width="3"/>
    <path id="Path_3800" data-name="Path 3800" d="M1248.423,1956.881c2.349.055,4.611.936,6.862,1.558.866.347,2.09.48,2.43,1.5a1.471,1.471,0,0,1-1.95,1.785,47.357,47.357,0,0,0-6.162-1.736c-.665-.175-1.468-.182-1.954-.739A1.491,1.491,0,0,1,1248.423,1956.881Z" fill="#73b3b4" stroke="#73b3b4" stroke-miterlimit="10" stroke-width="3"/>
    <path id="Path_3801" data-name="Path 3801" d="M1229.33,1957.577c.726-.142,1.555-.486,2.242-.032a1.505,1.505,0,0,1,.288,2.164,4.077,4.077,0,0,1-1.876.775,42.949,42.949,0,0,0-32.124,41.251,43.056,43.056,0,0,0,10.553,28.548,43.985,43.985,0,0,0,9.613,8.21,1.479,1.479,0,0,1,.019,2.614c-.927.47-1.805-.262-2.55-.735a45.947,45.947,0,0,1,13.835-82.795Z" fill="#73b3b4" stroke="#73b3b4" stroke-miterlimit="10" stroke-width="3"/>
    <path id="Path_3802" data-name="Path 3802" d="M1263.615,1962.985a1.493,1.493,0,0,1,1.578.139,45.92,45.92,0,0,1-37.558,82.915,1.474,1.474,0,0,1-.5-2.6c.623-.518,1.42-.162,2.106-.006a42.963,42.963,0,0,0,35.213-77.264c-.613-.457-1.53-.807-1.611-1.679A1.378,1.378,0,0,1,1263.615,1962.985Z" fill="#73b3b4" stroke="#73b3b4" stroke-miterlimit="10" stroke-width="3"/>
    <g id="Group_1400" data-name="Group 1400">
      <path id="Path_3803" data-name="Path 3803" d="M1217.786,1972.044a7,7,0,0,1,4.562-.421,6.716,6.716,0,0,1,3.139,2.044c2.848,2.887,5.745,5.728,8.593,8.615a6.1,6.1,0,0,1,1.221,6.432c-.745,1.931-2.527,3.123-3.868,4.607a2.152,2.152,0,0,0-.587,2.527,38.682,38.682,0,0,0,16.372,16.33,2.063,2.063,0,0,0,2.245-.506c1.559-1.351,2.761-3.217,4.747-4a6.076,6.076,0,0,1,6.58,1.316c2.825,2.792,5.609,5.624,8.437,8.417a7.624,7.624,0,0,1,1.915,2.615,6.822,6.822,0,0,1-.194,5.077,20.55,20.55,0,0,1-4.52,4.62,15.784,15.784,0,0,1-11.629,2.819c-9.165-1.2-17.408-6.1-24.312-12.037a97.1,97.1,0,0,1-12.585-13.342c-3.865-5.064-7.1-10.922-7.685-17.376a22.582,22.582,0,0,1,1.189-10.012,20.787,20.787,0,0,1,4.229-5.958A10.042,10.042,0,0,1,1217.786,1972.044Zm1.445,2.631a9.285,9.285,0,0,0-2.174,1.954,13.1,13.1,0,0,0-3.5,5.964,23.21,23.21,0,0,0,1.681,14.6c2.544,5.621,6.551,10.41,10.734,14.878,6.6,7.047,14.425,13.378,23.743,16.359,3.6,1.053,7.507,1.947,11.2.816,2.683-.761,4.808-2.689,6.727-4.623a3.236,3.236,0,0,0,.016-4.633q-4.467-4.472-8.943-8.933a3.2,3.2,0,0,0-4.2-.2c-1.238,1.011-2.216,2.3-3.451,3.311a5.044,5.044,0,0,1-5.579.451,43.851,43.851,0,0,1-11.418-9.021,46.565,46.565,0,0,1-5.738-8.2,5.113,5.113,0,0,1,.888-6c1.215-1.481,3.214-2.524,3.571-4.549a3.744,3.744,0,0,0-1.585-3.34c-2.78-2.728-5.5-5.515-8.272-8.249A3.137,3.137,0,0,0,1219.231,1974.675Z" fill="#73b3b4" stroke="#73b3b4" stroke-miterlimit="10" stroke-width="3"/>
    </g>
    <path id="Path_3804" data-name="Path 3804" d="M1258.477,1980.821c.91-.279,1.62.486,2.3.959,1.633,1.293,3.379,2.446,4.973,3.788a1.372,1.372,0,0,1-.068,2.119c-1.61,1.325-3.34,2.5-4.976,3.794-.681.466-1.462,1.276-2.356.842a1.435,1.435,0,0,1-.444-2.362c.752-.7,1.611-1.26,2.417-1.889-5.854-.068-11.712.042-17.564-.045a1.435,1.435,0,0,1-1.059-2.284c.36-.613,1.124-.606,1.75-.616q8.451.024,16.906.006a27.422,27.422,0,0,1-2.553-2A1.455,1.455,0,0,1,1258.477,1980.821Z" fill="#73b3b4" stroke="#73b3b4" stroke-miterlimit="10" stroke-width="3"/>
    <path id="Path_3805" data-name="Path 3805" d="M1247.289,1991.656c.561-.389,1.244-.956,1.96-.584a1.45,1.45,0,0,1,.483,2.379c-.755.69-1.62,1.244-2.42,1.882,5.615.039,11.226.01,16.838.013.655,0,1.468.006,1.824.671a1.511,1.511,0,0,1-.573,2.138,18.176,18.176,0,0,1-3.166.117c-4.983,0-9.969-.013-14.952.006a20.692,20.692,0,0,1,2.66,2.135,1.452,1.452,0,0,1-1.815,2.093c-1.811-1.166-3.447-2.585-5.21-3.823-.6-.492-1.458-.939-1.506-1.818-.078-.8.671-1.279,1.212-1.717C1244.192,1994,1245.74,1992.832,1247.289,1991.656Z" fill="#73b3b4" stroke="#73b3b4" stroke-miterlimit="10" stroke-width="3"/>
  </g>
</svg>
