<svg xmlns="http://www.w3.org/2000/svg" width="107.261" height="77.951" viewBox="0 0 107.261 77.951">
  <g id="Group_169" data-name="Group 169" transform="translate(-958.21 -172.577)">
    <g id="Group_167" data-name="Group 167">
      <path id="Path_729" data-name="Path 729" d="M996.495,173.815a2.707,2.707,0,0,1,2.713-1.225c10.182.019,20.37,0,30.553.015a2.575,2.575,0,0,1,2.436,1.425c1.611,2.732,3.308,5.42,4.862,8.19,5.988.119,11.975.005,17.958.052,3.079.1,6.364,1.049,8.409,3.495a10.217,10.217,0,0,1,2.045,5.573v50.2a10.86,10.86,0,0,1-1.764,5.21,10.4,10.4,0,0,1-8.256,3.776q-43.613.008-87.23,0c-3.089-.057-6.369-1.221-8.247-3.781a10.692,10.692,0,0,1-1.764-5.248V191.239a10.208,10.208,0,0,1,2.064-5.5c2.046-2.422,5.316-3.371,8.386-3.471,7.589-.019,15.174.01,22.763-.014C993.134,179.46,994.789,176.619,996.495,173.815Zm-1.969,13.315c-7.97.057-15.936.01-23.907.024-1.568.029-3.208-.2-4.686.462a4.6,4.6,0,0,0-2.875,4.62q-.013,24.1,0,48.2a4.829,4.829,0,0,0,1.821,4.262c1.493,1.148,3.471,1.058,5.254,1.044q42.661-.03,85.322-.015a4.819,4.819,0,0,0,5.154-4.805c.043-15.894,0-31.787.019-47.681a7.78,7.78,0,0,0-.415-3.261,5.018,5.018,0,0,0-4.734-2.822q-10.655,0-21.309-.005c-2.064-3.275-4.071-6.583-6.245-9.787q-13.893.079-27.783.005C998.154,180.547,996.586,184.041,994.526,187.13Z" fill="#fff"/>
    </g>
    <path id="Path_730" data-name="Path 730" d="M977.713,175.589c.734-.83,1.907-.52,2.884-.582,2.078.053,4.157-.071,6.235.062,1.163.982.453,2.88.525,4.243-.153.133-.453.4-.606.539-2.364.085-4.734,0-7.1.038a2.983,2.983,0,0,1-1.921-.5C977.737,178.125,977.741,176.857,977.713,175.589Z" fill="#fff"/>
    <g id="Group_168" data-name="Group 168">
      <path id="Path_731" data-name="Path 731" d="M1010.725,192.36a21.921,21.921,0,0,1,22.573,32.507,21.9,21.9,0,1,1-33.265-27.516A22.225,22.225,0,0,1,1010.725,192.36Zm-.3,4.977a17.113,17.113,0,1,0,14.606,3.389A17.195,17.195,0,0,0,1010.425,197.337Z" fill="#fff"/>
    </g>
    <path id="Path_732" data-name="Path 732" d="M1039.381,192.379c3.508-1.488,7.6,2.216,6.378,5.844a4.85,4.85,0,1,1-6.378-5.844Z" fill="#fff"/>
  </g>
</svg>
