<svg xmlns="http://www.w3.org/2000/svg" width="131.001" height="85.872" viewBox="0 0 131.001 85.872">
  <g id="Group_172" data-name="Group 172" transform="translate(-1150.651 -168.616)">
    <path id="Path_733" data-name="Path 733" d="M1174.3,168.911a7.737,7.737,0,0,1,2.862-.295q48.786.045,97.574.018a6.723,6.723,0,0,1,6.9,6.875q-.018,29.22-.012,58.445c.349,1.886-2.091,3-3.5,1.958a2.64,2.64,0,0,1-.946-2.518q0-28.967-.006-57.94c.253-1.669-1.476-2.627-2.94-2.416q-47.314-.009-94.634,0c-1.591-.018-3.187.091-4.766-.084C1173.041,172.562,1172.782,169.8,1174.3,168.911Z" fill="#fff"/>
    <path id="Path_734" data-name="Path 734" d="M1165.263,177.925a8.762,8.762,0,0,1,2.862-.271q48.823.045,97.634.018a6.743,6.743,0,0,1,6.845,6.863q0,29.228-.012,58.457c.488,2.724-4.1,3.188-4.357.6-.132-19.673.043-39.358-.084-59.03.235-1.742-1.512-2.718-3.043-2.459-32.934-.03-65.862.067-98.8-.048C1164.2,182.124,1163.546,178.943,1165.263,177.925Z" fill="#fff"/>
    <g id="Group_170" data-name="Group 170">
      <path id="Path_735" data-name="Path 735" d="M1150.651,192.807c.446-3.259,3.212-6.164,6.622-6.079,32.133-.066,64.266.006,96.4-.036a27.485,27.485,0,0,1,4.832.217,6.763,6.763,0,0,1,5.062,6.645q.018,27.114-.012,54.234c.072,3.893-3.622,6.935-7.4,6.664-32.145.073-64.29-.006-96.436.036-2.2.006-4.627-.048-6.422-1.518a7.534,7.534,0,0,1-2.646-4.784Zm6.1-1.548c-1.271.259-1.765,1.741-1.663,2.91q.027,26.508.012,53.029a2.442,2.442,0,0,0,2.711,2.765q47.658.02,95.315.013a38.513,38.513,0,0,0,4.4-.1,2.465,2.465,0,0,0,1.627-2.633q.045-26.544.012-53.1c.217-1.452-.753-3.206-2.41-2.934C1223.425,191.235,1190.081,191.12,1156.749,191.259Z" fill="#fff"/>
    </g>
    <path id="Path_736" data-name="Path 736" d="M1159.665,197.242c.585-.482.94-1.4,1.8-1.416,3.217-.157,6.453-.09,9.67-.036,2.429-.187,2.79,3.754.555,4.32-2.507.253-5.031.048-7.544.108a73.947,73.947,0,0,1-.163,7.851,2.284,2.284,0,0,1-4.229-.668C1159.581,204.02,1159.762,200.628,1159.665,197.242Z" fill="#fff"/>
    <g id="Group_171" data-name="Group 171">
      <path id="Path_737" data-name="Path 737" d="M1202.565,196.133a25.342,25.342,0,0,1,12.7.976,24.794,24.794,0,0,1-8.574,48.221c-11.719.078-22.487-9.387-24.071-20.968a24.862,24.862,0,0,1,19.943-28.229Zm.241,4.507a20.343,20.343,0,0,0-14.412,11.912,20.554,20.554,0,0,0,1.048,18.1c4.507,8.177,15.052,12.364,23.909,9.291,9.237-2.735,15.557-12.761,13.93-22.269a20.159,20.159,0,0,0-9.218-14.322A20.486,20.486,0,0,0,1202.806,200.64Z" fill="#fff"/>
    </g>
    <path id="Path_738" data-name="Path 738" d="M1241.531,199.688c-.59-1.259-.693-3.036.735-3.766,3.176-.373,6.393-.1,9.587-.168a2.17,2.17,0,0,1,2.645,2.066c.066,3.218.108,6.448-.024,9.665-.272,2.181-3.7,2.368-4.23.247-.308-2.482-.054-4.995-.127-7.489C1247.261,200.014,1244.273,200.713,1241.531,199.688Z" fill="#fff"/>
    <path id="Path_739" data-name="Path 739" d="M1204.867,209.6c-.084-1.82-.265-4.965,2.4-4.8,2.368.024,2.133,2.771,2.079,4.434,1.386.133,3.223-.433,4.145.946a2.277,2.277,0,0,1-.765,3.35c-2.054.4-4.181-.09-6.236.3-1.97.439-2.235,3.555-.331,4.26,1.488.307,3.091.349,4.41,1.2,2.7,1.584,4.206,5.266,2.838,8.194a7.292,7.292,0,0,1-4.043,3.983c-.012,1.747.4,4.651-2.037,4.85-2.494.205-2.639-2.711-2.458-4.489-1.41-.174-3.3.4-4.212-1.024a2.408,2.408,0,0,1,1.332-3.4c2.006-.187,4.025-.061,6.037-.055.79-.753,1.9-1.777,1.3-2.982-.422-1.735-2.446-1.555-3.8-1.832a6.73,6.73,0,0,1-4.507-9.3A8.043,8.043,0,0,1,1204.867,209.6Z" fill="#fff"/>
    <path id="Path_740" data-name="Path 740" d="M1159.653,233.406c.808-1.573,3.145-2.169,4.236-.542.548,2.645.133,5.386.247,8.074,2.519.048,5.049-.145,7.562.1,2.271.434,1.807,4.417-.548,4.278-3.628-.115-7.369.482-10.924-.41C1159.075,241.2,1160,237.22,1159.653,233.406Z" fill="#fff"/>
    <path id="Path_741" data-name="Path 741" d="M1250.214,233.418c.452-1.994,3.868-2.067,4.229.006.217,3.187.067,6.393.079,9.586a2.118,2.118,0,0,1-2.025,2.3c-3.217.06-6.447.108-9.664-.024-2.308-.169-2.32-4.079-.012-4.284,2.422-.169,4.85-.012,7.278-.079C1250.184,238.419,1249.967,235.906,1250.214,233.418Z" fill="#fff"/>
  </g>
</svg>
