<svg xmlns="http://www.w3.org/2000/svg" width="171.257" height="112.262" viewBox="0 0 171.257 112.262">
  <g id="Group_561" data-name="Group 561" transform="translate(-239.44 -401.057)">
    <path id="Path_1236" data-name="Path 1236" d="M270.349,401.443a10.128,10.128,0,0,1,3.742-.386q63.78.059,127.559.024a8.787,8.787,0,0,1,9.019,8.987q-.024,38.2-.016,76.407c.457,2.465-2.733,3.922-4.576,2.56-1.127-.694-1.292-2.1-1.237-3.293q0-37.869-.008-75.745c.331-2.182-1.93-3.434-3.844-3.158q-61.853-.012-123.715,0c-2.079-.024-4.167.118-6.231-.111C268.711,406.216,268.372,402.6,270.349,401.443Z" fill="#4d8d8f"/>
    <path id="Path_1237" data-name="Path 1237" d="M258.542,413.227a11.492,11.492,0,0,1,3.741-.355q63.827.06,127.638.024a8.815,8.815,0,0,1,8.948,8.972q0,38.211-.015,76.422c.638,3.56-5.365,4.167-5.7.78-.174-25.718.055-51.452-.111-77.171.308-2.276-1.977-3.552-3.977-3.213-43.056-.04-86.1.086-129.159-.063C257.155,418.717,256.3,414.558,258.542,413.227Z" fill="#4d8d8f"/>
    <g id="Group_559" data-name="Group 559">
      <path id="Path_1238" data-name="Path 1238" d="M239.44,432.683c.583-4.261,4.2-8.058,8.657-7.948,42.008-.086,84.015.008,126.023-.047a36.157,36.157,0,0,1,6.317.283,8.843,8.843,0,0,1,6.617,8.689q.024,35.446-.016,70.9c.1,5.089-4.734,9.066-9.673,8.712-42.023.1-84.047-.008-126.07.047-2.875.008-6.05-.063-8.4-1.985a9.848,9.848,0,0,1-3.458-6.254Zm7.972-2.024c-1.662.338-2.308,2.276-2.174,3.8q.034,34.654.015,69.325A3.194,3.194,0,0,0,248.8,507.4q62.3.023,124.605.015a50.052,50.052,0,0,0,5.758-.133,3.227,3.227,0,0,0,2.127-3.443q.059-34.7.016-69.419c.283-1.9-.985-4.191-3.151-3.836C334.578,430.627,290.987,430.477,247.412,430.659Z" fill="#4d8d8f"/>
    </g>
    <path id="Path_1239" data-name="Path 1239" d="M251.224,438.48c.764-.63,1.229-1.827,2.347-1.851,4.207-.2,8.437-.118,12.643-.047,3.174-.244,3.647,4.907.725,5.648-3.277.331-6.578.063-9.862.142-.1,3.418.244,6.86-.213,10.263-1.253,2.387-5.167,1.851-5.53-.874C251.114,447.342,251.35,442.907,251.224,438.48Z" fill="#4d8d8f"/>
    <g id="Group_560" data-name="Group 560">
      <path id="Path_1240" data-name="Path 1240" d="M307.308,437.031a33.117,33.117,0,0,1,16.6,1.276A32.413,32.413,0,0,1,312.7,501.346c-15.321.1-29.4-12.272-31.469-27.411a32.505,32.505,0,0,1,26.073-36.9Zm.315,5.892A26.593,26.593,0,0,0,288.781,458.5a26.866,26.866,0,0,0,1.371,23.662c5.892,10.689,19.676,16.164,31.256,12.146,12.075-3.576,20.338-16.683,18.211-29.113a26.351,26.351,0,0,0-12.052-18.723A26.771,26.771,0,0,0,307.623,442.923Z" fill="#4d8d8f"/>
    </g>
    <path id="Path_1241" data-name="Path 1241" d="M358.248,441.678c-.772-1.646-.906-3.97.961-4.923,4.151-.488,8.357-.126,12.532-.22,1.67-.229,3.584.819,3.458,2.7.087,4.206.142,8.428-.031,12.634-.355,2.852-4.837,3.1-5.53.323-.4-3.245-.071-6.53-.165-9.791C365.739,442.1,361.832,443.018,358.248,441.678Z" fill="#4d8d8f"/>
    <path id="Path_1242" data-name="Path 1242" d="M310.317,454.636c-.11-2.379-.347-6.491,3.135-6.278,3.1.032,2.788,3.624,2.717,5.8,1.812.173,4.215-.568,5.42,1.236a2.979,2.979,0,0,1-1,4.38c-2.686.52-5.466-.118-8.152.386-2.576.575-2.923,4.647-.433,5.569,1.945.4,4.04.457,5.765,1.567,3.529,2.072,5.5,6.885,3.71,10.713-.834,2.481-3.009,4.12-5.285,5.207-.016,2.284.528,6.081-2.662,6.341-3.261.267-3.45-3.545-3.214-5.869-1.843-.228-4.317.52-5.506-1.339-.748-1.662-.181-3.962,1.741-4.442,2.623-.245,5.261-.079,7.892-.071,1.032-.985,2.482-2.324,1.7-3.9-.552-2.269-3.2-2.033-4.971-2.395a8.8,8.8,0,0,1-5.892-12.162C306.237,457.157,308.269,455.747,310.317,454.636Z" fill="#4d8d8f"/>
    <path id="Path_1243" data-name="Path 1243" d="M251.208,485.758c1.056-2.056,4.112-2.836,5.538-.709.717,3.458.173,7.042.323,10.555,3.292.063,6.6-.189,9.885.126,2.97.567,2.363,5.774-.717,5.593-4.741-.15-9.633.63-14.28-.536C250.452,495.951,251.665,490.744,251.208,485.758Z" fill="#4d8d8f"/>
    <path id="Path_1244" data-name="Path 1244" d="M369.6,485.774c.59-2.608,5.057-2.7,5.529.007.284,4.167.087,8.358.1,12.533a2.769,2.769,0,0,1-2.647,3c-4.206.079-8.428.142-12.635-.032-3.016-.22-3.032-5.332-.015-5.6,3.166-.221,6.341-.016,9.515-.1C369.559,492.311,369.276,489.027,369.6,485.774Z" fill="#4d8d8f"/>
  </g>
</svg>
