<svg xmlns="http://www.w3.org/2000/svg" width="89.91" height="92" viewBox="0 0 89.91 92">
  <g id="Group_612" data-name="Group 612" transform="translate(-519.761 -2773.279)">
    <g id="Group_610" data-name="Group 610">
      <path id="Path_1306" data-name="Path 1306" d="M519.792,2773.282q26.616.036,53.236.011a4.255,4.255,0,0,1,1.15.054q10.8,10.686,21.582,21.382c.017,3.066-.006,6.133.013,9.2.029.3-.276.453-.444.646-1.255,1.126-2.394,2.392-3.711,3.446.008-3.051,0-6.1,0-9.148q-10.722-.006-21.443,0-.006-10.248,0-20.495-23.136,0-46.269,0,.009,41.01,0,82.015,33.854.016,67.708,0c0-4.073.011-8.146-.005-12.219,1.383-1.252,2.738-2.535,4.152-3.752q-.008,10.431,0,20.859h-76q.016-31.88,0-63.755C519.785,2792.109,519.73,2782.7,519.792,2773.282Zm55.467,6.972c.01,4.828-.014,9.653.011,14.481,4.881,0,9.763.009,14.642-.006Q582.6,2787.477,575.259,2780.254Z" fill="#fff"/>
    </g>
    <g id="Group_611" data-name="Group 611">
      <path id="Path_1307" data-name="Path 1307" d="M546.1,2785.145c1.566-.01,3.132,0,4.7,0,.011,1.253,0,2.507.006,3.76a15.373,15.373,0,0,1,9.712,4.989,10.544,10.544,0,0,1,2.33,7.613c-2.7.013-5.392.006-8.088,0a8.036,8.036,0,0,0-1.464-4.3,5.66,5.66,0,0,0-2.49-1.534q-.006,5.885,0,11.772a.753.753,0,0,0,.542.767c2.973,1.388,6.049,2.76,8.44,5.07a10.207,10.207,0,0,1,3.237,7.269,12.641,12.641,0,0,1-2.614,8.086,12.461,12.461,0,0,1-5.142,3.518c-1.4.54-2.9.734-4.278,1.326-.059,1.57-.115,3.139-.187,4.709-1.566,0-3.132-.015-4.7,0,0-1.574-.007-3.147,0-4.721-1.3-.438-2.666-.595-3.97-1.009a12.416,12.416,0,0,1-6.855-5.072,12.158,12.158,0,0,1-1.6-6.51c2.644-.068,5.288-.123,7.932-.2a14.507,14.507,0,0,0,1.03,3.438,5.633,5.633,0,0,0,3.453,2.6c.01-4.082,0-8.166,0-12.249-1.477-.961-3.152-1.551-4.7-2.386a14.764,14.764,0,0,1-6.456-5.575,10.675,10.675,0,0,1-1.257-5.739,10.927,10.927,0,0,1,2.771-7.521,13.891,13.891,0,0,1,5.885-3.6c1.207-.544,2.6-.411,3.753-1.124C546.1,2787.4,546.1,2786.274,546.1,2785.145Zm-4.093,14.162a4.52,4.52,0,0,0,.976,4.532,16.053,16.053,0,0,0,2.925,1.971q0-5.158,0-10.317A6.468,6.468,0,0,0,542.011,2799.307Zm8.8,17.252c0,3.321-.01,6.641,0,9.962a6.944,6.944,0,0,0,3.621-3.321,4.081,4.081,0,0,0-.021-3.579A7.026,7.026,0,0,0,550.808,2816.559Z" fill="#fff"/>
    </g>
    <path id="Path_1308" data-name="Path 1308" d="M594.811,2812.231q1.038-1.221,2.071-2.444c4.264,3.768,8.555,7.506,12.789,11.308-.7.795-1.368,1.615-2.056,2.418Q601.205,2817.881,594.811,2812.231Z" fill="#fff"/>
    <path id="Path_1309" data-name="Path 1309" d="M573.383,2836.66q10.184-11.529,20.31-23.111c.564.5,1.124,1.008,1.7,1.5q-8.741,9.979-17.494,19.948c.455.431.863.91,1.352,1.306,5.846-6.738,11.762-13.414,17.645-20.118q4.8,4.224,9.592,8.464-10.152,11.664-20.311,23.326C581.908,2844.206,577.611,2840.467,573.383,2836.66Z" fill="#fff"/>
    <path id="Path_1310" data-name="Path 1310" d="M572.623,2838.949q5.841,5.067,11.663,10.154c-2.631,1.137-5.272,2.254-7.9,3.393-2.122-1.9-4.269-3.761-6.389-5.654Q571.3,2842.9,572.623,2838.949Z" fill="#fff"/>
    <path id="Path_1311" data-name="Path 1311" d="M567.174,2856.628c.642-2.316,1.209-4.657,1.917-6.953,1.592,1.342,3.238,2.618,4.846,3.942C571.685,2854.624,569.433,2855.637,567.174,2856.628Z" fill="#fff"/>
  </g>
</svg>
