<svg xmlns="http://www.w3.org/2000/svg" width="124.761" height="81.817" viewBox="0 0 124.761 81.817">
  <g id="Group_1900" data-name="Group 1900" transform="translate(-724.176 -2776.221)">
    <path id="Path_4479" data-name="Path 4479" d="M775.742,2776.516a10.156,10.156,0,0,1,3.243-.292q17.8.015,35.594.007a6.288,6.288,0,0,1,5.931,4.748c1.713,7.022,3.4,14.049,5.095,21.074,1.93.023,3.86-.025,5.79.018a6.186,6.186,0,0,1,5.065,3.085,12.12,12.12,0,0,1,1.126,3.443q2.478,10.261,4.959,20.523a4.721,4.721,0,0,1,.059,1.652,9.943,9.943,0,0,1,.823,2.02c1.845,7.585,3.65,15.18,5.51,22.76v.588a2.175,2.175,0,0,1-2.184,1.871q-60.075.027-120.153.01a2.244,2.244,0,0,1-2.424-1.813v-.631c1.252-7.484,2.4-14.988,3.645-22.475a6.286,6.286,0,0,1,5.848-5.206c5.951-.03,11.9,0,17.852-.012,1.116-6.854,2.2-13.715,3.321-20.566a6.286,6.286,0,0,1,5.877-5.251c2.479-.033,4.959,0,7.437-.013q1.531-9.452,3.046-18.908a12.237,12.237,0,0,1,.765-3.241A6.306,6.306,0,0,1,775.742,2776.516Zm-.185,5.827q-1.609,9.854-3.178,19.713,14.175,0,28.354,0-1.59-9.856-3.177-19.71a2.124,2.124,0,0,0-2.225-1.814H777.777A2.116,2.116,0,0,0,775.557,2782.343Zm25.851-1.811c.37,1.428.521,2.9.78,4.354q1.382,8.584,2.765,17.17,8.184,0,16.366,0-2.4-9.947-4.808-19.886a2.179,2.179,0,0,0-2.417-1.645C809.866,2780.537,805.636,2780.53,801.408,2780.532Zm-42.5,27.7q-1.594,9.827-3.165,19.658,14.178,0,28.353,0-1.563-9.762-3.141-19.519a2.141,2.141,0,0,0-2.19-2c-5.936,0-11.874-.015-17.81.005A2.093,2.093,0,0,0,758.909,2808.228Zm25.861-1.866c.753,3.438,1.118,6.957,1.784,10.415.672-3.456,1.033-6.977,1.788-10.415Zm7.383,2.01q-1.572,9.757-3.138,19.514,14.178,0,28.354,0-1.582-9.831-3.168-19.66a2.1,2.1,0,0,0-2.047-1.854c-5.936-.02-11.872-.01-17.81-.005A2.14,2.14,0,0,0,792.153,2808.372Zm25.886-2.01a23.525,23.525,0,0,1,.509,2.641q1.521,9.439,3.041,18.883c5.441.017,10.885-.033,16.326.025-1.481-6.581-3.153-13.122-4.7-19.688a2.142,2.142,0,0,0-2.049-1.851C826.787,2806.347,822.413,2806.369,818.039,2806.362Zm-86.175,27.764q-1.577,9.792-3.151,19.589h28.354q-1.572-9.8-3.156-19.6a2.129,2.129,0,0,0-2.176-1.922c-5.941,0-11.884-.013-17.827.007A2.114,2.114,0,0,0,731.864,2834.126Zm25.875-1.927c.751,3.473,1.145,7.02,1.786,10.516.631-3.5,1.041-7.048,1.784-10.524C760.12,2832.194,758.928,2832.181,757.739,2832.2Zm7.4,1.9q-1.583,9.8-3.155,19.612,14.178,0,28.356,0-1.582-9.8-3.158-19.6a2.122,2.122,0,0,0-2.076-1.909q-8.9-.022-17.81,0A2.122,2.122,0,0,0,765.137,2834.1Zm25.871-1.914c.741,3.491,1.172,7.047,1.779,10.569.636-3.516,1.045-7.078,1.791-10.572C793.386,2832.194,792.2,2832.191,791.008,2832.189Zm7.393,1.95q-1.579,9.785-3.153,19.571,14.178.023,28.356.005-1.572-9.8-3.158-19.6a2.126,2.126,0,0,0-2.2-1.917q-8.784-.008-17.564,0A2.149,2.149,0,0,0,798.4,2834.139Zm25.878-1.938a31.577,31.577,0,0,1,.6,3.2q1.478,9.153,2.949,18.31,8.184,0,16.37,0c-1.609-6.624-3.192-13.253-4.808-19.874a2.277,2.277,0,0,0-2.646-1.653C832.589,2832.206,828.434,2832.174,824.279,2832.2Z" fill="#fff"/>
  </g>
</svg>
