<svg xmlns="http://www.w3.org/2000/svg" width="475.008" height="559.469" viewBox="0 0 475.008 559.469">
  <g id="Group_1965" data-name="Group 1965" transform="translate(287.158 3819.53)">
    <path id="Path_2994" data-name="Path 2994" d="M137.088,372.311" transform="translate(-316.411 -3836.373)" fill="#218b89"/>
    <g id="Group_868" data-name="Group 868" transform="translate(-316.411 -3836.373)" opacity="0.2">
      <path id="Path_2995" data-name="Path 2995" d="M149.423,348.657h1.237A85.464,85.464,0,0,1,188.7,357.9c18.346,9.206,33.483,25.248,42.33,44.6-.555.019-1.1.048-1.651.059q-59.2-.082-118.393-.014-11.744-12.406-23.446-24.861c-.4-.336-.72-1.084-1.331-.883a92.185,92.185,0,0,1,27.344-19.942A85.654,85.654,0,0,1,149.423,348.657Z" fill="#c40028"/>
    </g>
    <g id="Group_869" data-name="Group 869" transform="translate(-316.411 -3836.373)" opacity="0.2">
      <path id="Path_2996" data-name="Path 2996" d="M60.446,435.753A97.1,97.1,0,0,1,86.2,376.8c.611-.2.927.547,1.331.883q11.7,12.445,23.446,24.861,19.507,20.745,39.064,41.439-19.528,20.752-39.085,41.474c-8.011,8.438-15.969,16.929-23.963,25.382-.316.514-.846.075-1.208-.093a97.2,97.2,0,0,1-25.336-58.6,2.523,2.523,0,0,0-.316-2.261V437.8A2.3,2.3,0,0,0,60.446,435.753Z" fill="#1e6125"/>
    </g>
    <g id="Group_870" data-name="Group 870" transform="translate(-316.411 -3836.373)" opacity="0.2">
      <path id="Path_2997" data-name="Path 2997" d="M110.981,402.543q59.2-.018,118.393.014c.552.015,1.1.023,1.658.023a99.914,99.914,0,0,1,8.921,40.732v1.374A99.383,99.383,0,0,1,231,485.411c-.562-.011-1.124-.007-1.679.011-39.457.067-78.911,0-118.365.034q19.507-20.769,39.085-41.474Q130.527,423.253,110.981,402.543Z" fill="#fff"/>
    </g>
    <g id="Group_871" data-name="Group 871" transform="translate(-316.411 -3836.373)" opacity="0.2">
      <path id="Path_2998" data-name="Path 2998" d="M110.96,485.456c39.454-.034,78.908.033,118.365-.034.566.008,1.131.03,1.7.053a94.224,94.224,0,0,1-36.315,41.257A86.1,86.1,0,0,1,151.7,539.323h-4.653a87.013,87.013,0,0,1-38.467-10.751,93.846,93.846,0,0,1-22.79-17.827c.362.168.892.607,1.208.093C94.991,502.385,102.949,493.894,110.96,485.456Z" fill="#040506"/>
    </g>
    <g id="Group_874" data-name="Group 874" transform="translate(-316.411 -3836.373)">
      <path id="Path_2999" data-name="Path 2999" d="M66.322,477.146" fill="#218b89"/>
      <g id="Group_873" data-name="Group 873">
        <path id="Path_3000" data-name="Path 3000" d="M154.762,320.842c-69.206,0-125.509,57.3-125.509,127.734s56.3,127.736,125.509,127.736,125.509-57.3,125.509-127.736S223.968,320.842,154.762,320.842ZM265.949,439.526l.194,2.94c.041.982.037,1.97.058,2.957l.047,2.968-.093,2.973-.105,3.094-.249,2.937-.255,2.944-.4,2.987a120.518,120.518,0,0,1-5.757,23.626,114.469,114.469,0,0,1-26.108,41.534,112.128,112.128,0,0,1-40.811,26.566,115.611,115.611,0,0,1-23.214,5.853,111.575,111.575,0,0,1-66.058-10.975,117.208,117.208,0,0,1-32.1-24.181,120.178,120.178,0,0,1-19.509-28.4,121.66,121.66,0,0,1-9.078-25.319,138.589,138.589,0,0,1-2.8-17.253c-.262-4.046-.4-6.2-.4-6.2s-.027,2.167-.077,6.228a123.136,123.136,0,0,0,1.555,17.586A116.118,116.118,0,0,0,48.527,498.8a117.764,117.764,0,0,0,18.817,30.412c1.41,1.644,2.911,3.267,4.452,4.876A120.931,120.931,0,0,1,36.61,448.576c0-66.3,53-120.248,118.152-120.248a116.789,116.789,0,0,1,84.34,36.149c-1.686-1.686-3.389-3.325-5.116-4.861a115.193,115.193,0,0,0-29.876-19.151,111.216,111.216,0,0,0-25.949-7.876A117.036,117.036,0,0,0,160.877,331l-6.114.076,6.1.409a131.87,131.87,0,0,1,16.947,2.842,116.613,116.613,0,0,1,24.881,9.237,116.365,116.365,0,0,1,63.257,95.959Z" fill="#218b89"/>
        <path id="Path_3001" data-name="Path 3001" d="M154.762,348.657c-54.135,0-98.178,44.825-98.178,99.919S100.627,548.5,154.762,548.5s98.179-44.824,98.179-99.921S208.9,348.657,154.762,348.657Zm85.008,93a90.24,90.24,0,0,1-5.042,36.251,87.487,87.487,0,0,1-19.962,31.736A85.277,85.277,0,0,1,115.319,526.1a89.868,89.868,0,0,1-24.59-18.462,92.2,92.2,0,0,1-14.983-21.708,93.346,93.346,0,0,1-7.007-19.38,107,107,0,0,1-2.186-13.219c-.211-3.1-.324-4.757-.324-4.757s-.026,1.662-.074,4.777a94.042,94.042,0,0,0,1.149,13.5,88.978,88.978,0,0,0,5.889,20.291A90.248,90.248,0,0,0,87.6,510.53c1.348,1.577,2.794,3.131,4.3,4.664a92.936,92.936,0,0,1-27.957-66.618c0-50.966,40.742-92.432,90.821-92.432a89.816,89.816,0,0,1,65.709,28.723c-1.59-1.628-3.2-3.186-4.842-4.636a88.223,88.223,0,0,0-22.977-14.663,85.15,85.15,0,0,0-19.935-6,89.456,89.456,0,0,0-13.265-1.174l-4.689.076,4.678.328a101.666,101.666,0,0,1,12.985,2.222A88.975,88.975,0,0,1,212.8,383.4a91.193,91.193,0,0,1,18.142,25.028A89.722,89.722,0,0,1,239.77,441.657Z" fill="#218b89"/>
        <path id="Path_3002" data-name="Path 3002" d="M142.746,554.031l-3.447-.609c-1.247-.3-2.6-.562-4.031-.871-2.862-.674-6.047-1.557-9.471-2.621-1.709-.542-3.456-1.216-5.268-1.859-1.772-.775-3.662-1.392-5.51-2.274a116.564,116.564,0,0,1-11.385-5.883A124.155,124.155,0,0,1,92.357,532.2a119.562,119.562,0,0,1-10.522-9.4,120.589,120.589,0,0,1-9.23-10.712,126.622,126.622,0,0,1-7.579-11.48,120.894,120.894,0,0,1-5.78-11.584c-.866-1.882-1.477-3.8-2.232-5.607-.633-1.845-1.3-3.622-1.828-5.361-1.048-3.483-1.913-6.726-2.578-9.637-.305-1.46-.565-2.835-.857-4.1-.218-1.281-.419-2.458-.6-3.521-.392-2.131-.547-3.828-.724-4.983s-.256-1.778-.256-1.778-.058.622-.167,1.785c-.058,1.164-.332,2.886-.313,5.075-.018,1.1-.037,2.317-.059,3.643.032,1.324.122,2.755.191,4.292s.288,3.157.441,4.883.541,3.5.824,5.385c.334,1.872.795,3.8,1.227,5.813.562,1.972,1.079,4.043,1.8,6.106a96.172,96.172,0,0,0,5.178,12.764,102.351,102.351,0,0,0,7.587,12.644,105.45,105.45,0,0,0,9.755,11.668A104.719,104.719,0,0,0,88.1,538.014a100.092,100.092,0,0,0,12.425,7.717A92.978,92.978,0,0,0,113.069,551c2.027.734,4.06,1.265,6,1.831,1.977.44,3.871.91,5.71,1.251,1.85.288,3.593.686,5.291.839s3.286.378,4.8.45,2.916.163,4.218.2l3.591-.058c2.161.021,3.822-.258,4.972-.316l1.755-.169-1.745-.259C146.528,554.587,144.831,554.428,142.746,554.031Z" fill="#218b89"/>
      </g>
      <path id="Path_3003" data-name="Path 3003" d="M209,351.423a92.967,92.967,0,0,0-12.54-5.269c-2.027-.734-4.06-1.264-6-1.831-1.978-.439-3.872-.909-5.711-1.25-1.85-.289-3.593-.687-5.29-.839s-3.287-.378-4.8-.451-2.916-.162-4.216-.2l-3.592.058c-2.16-.021-3.822.259-4.972.316l-1.755.169,1.745.259c1.13.178,2.825.337,4.91.735l3.448.609c1.247.3,2.6.562,4.031.871,2.862.673,6.047,1.556,9.471,2.621,1.709.541,3.456,1.215,5.269,1.858,1.772.775,3.661,1.392,5.509,2.274a116.431,116.431,0,0,1,11.384,5.883,124.183,124.183,0,0,1,11.279,7.718,119.708,119.708,0,0,1,10.521,9.4,120.871,120.871,0,0,1,9.23,10.711,127.042,127.042,0,0,1,7.579,11.48,121.026,121.026,0,0,1,5.78,11.585c.866,1.882,1.477,3.8,2.232,5.607.633,1.845,1.3,3.622,1.829,5.361,1.048,3.484,1.912,6.726,2.577,9.637.3,1.46.564,2.834.857,4.1.219,1.281.419,2.458.6,3.521.393,2.131.548,3.828.724,4.984l.256,1.777s.059-.622.168-1.785c.058-1.164.332-2.886.313-5.075.018-1.1.037-2.317.059-3.642-.032-1.325-.122-2.756-.191-4.293s-.288-3.157-.441-4.882-.541-3.5-.825-5.386c-.334-1.871-.794-3.8-1.226-5.812-.562-1.972-1.079-4.044-1.8-6.107a96.114,96.114,0,0,0-5.178-12.764,102.3,102.3,0,0,0-7.587-12.644,105.355,105.355,0,0,0-9.755-11.668,104.728,104.728,0,0,0-11.468-9.924A100.026,100.026,0,0,0,209,351.423Z" fill="#218b89"/>
    </g>
    <g id="Group_880" data-name="Group 880" transform="translate(-316.411 -3836.373)" opacity="0.2">
      <g id="Group_876" data-name="Group 876">
        <path id="Path_3004" data-name="Path 3004" d="M381.5,314.367h1.16a80.167,80.167,0,0,1,35.684,8.672c17.213,8.637,31.415,23.688,39.715,41.842-.521.017-1.031.045-1.549.056q-55.539-.08-111.077-.014-11.018-11.64-22-23.325c-.379-.314-.675-1.017-1.248-.828a86.479,86.479,0,0,1,25.654-18.709A80.348,80.348,0,0,1,381.5,314.367Z" fill="#c40028"/>
      </g>
      <g id="Group_877" data-name="Group 877">
        <path id="Path_3005" data-name="Path 3005" d="M298.02,396.081a91.1,91.1,0,0,1,24.166-55.311c.573-.189.869.514,1.248.828q10.983,11.676,22,23.325,18.3,19.464,36.65,38.879-18.322,19.47-36.67,38.911C337.9,450.63,330.43,458.6,322.93,466.526c-.3.483-.794.07-1.133-.087a91.184,91.184,0,0,1-23.77-54.982,2.371,2.371,0,0,0-.3-2.121V398A2.157,2.157,0,0,0,298.02,396.081Z" fill="#1e6125"/>
      </g>
      <g id="Group_878" data-name="Group 878">
        <path id="Path_3006" data-name="Path 3006" d="M345.432,364.923q55.539-.017,111.077.014c.518.014,1.035.021,1.556.021a93.736,93.736,0,0,1,8.369,38.215v1.289a93.236,93.236,0,0,1-8.4,38.209c-.527-.011-1.054-.007-1.575.01-37.019.063-74.035,0-111.051.032q18.3-19.485,36.67-38.911Q363.77,384.353,345.432,364.923Z" fill="#fff"/>
      </g>
      <g id="Group_879" data-name="Group 879">
        <path id="Path_3007" data-name="Path 3007" d="M345.412,442.713c37.016-.032,74.032.031,111.051-.032.531.007,1.061.028,1.6.049a88.382,88.382,0,0,1-34.07,38.708,80.782,80.782,0,0,1-40.357,11.813h-4.366a81.622,81.622,0,0,1-36.09-10.087A88.048,88.048,0,0,1,321.8,466.439c.339.157.837.57,1.133.087C330.43,458.6,337.9,450.63,345.412,442.713Z" fill="#040506"/>
      </g>
    </g>
    <g id="Group_882" data-name="Group 882" transform="translate(-316.411 -3836.373)">
      <path id="Path_3008" data-name="Path 3008" d="M303.532,434.916" fill="#218b89"/>
      <g id="Group_881" data-name="Group 881">
        <path id="Path_3009" data-name="Path 3009" d="M386.507,288.271c-64.929,0-117.753,53.761-117.753,119.841s52.824,119.842,117.753,119.842,117.754-53.761,117.754-119.842S451.437,288.271,386.507,288.271Zm104.317,111.35.182,2.758c.039.922.034,1.848.054,2.775l.045,2.785-.088,2.788-.1,2.9-.234,2.755-.239,2.763-.378,2.8a113.143,113.143,0,0,1-5.4,22.167,107.41,107.41,0,0,1-24.495,38.967,105.191,105.191,0,0,1-38.289,24.924A108.434,108.434,0,0,1,400.1,513.5a104.673,104.673,0,0,1-61.976-10.3,109.981,109.981,0,0,1-30.113-22.687,112.769,112.769,0,0,1-18.3-26.641,114.156,114.156,0,0,1-8.517-23.755,130,130,0,0,1-2.623-16.187c-.246-3.8-.378-5.82-.378-5.82s-.025,2.033-.072,5.843a115.5,115.5,0,0,0,1.459,16.5,108.906,108.906,0,0,0,7.258,24.78,110.467,110.467,0,0,0,17.654,28.532c1.324,1.543,2.732,3.066,4.178,4.575a113.453,113.453,0,0,1-33.013-80.23c0-62.208,49.728-112.818,110.851-112.818a109.569,109.569,0,0,1,79.129,33.916c-1.582-1.583-3.18-3.121-4.8-4.561a108.046,108.046,0,0,0-28.03-17.968,104.36,104.36,0,0,0-24.346-7.389,109.857,109.857,0,0,0-16.215-1.488l-5.737.072,5.724.383a123.841,123.841,0,0,1,15.9,2.666,109.5,109.5,0,0,1,23.343,8.666,109.177,109.177,0,0,1,59.348,90.03Z" fill="#218b89"/>
        <path id="Path_3010" data-name="Path 3010" d="M386.507,314.367c-50.789,0-92.111,42.055-92.111,93.745s41.322,93.746,92.111,93.746S478.62,459.8,478.62,408.112,437.3,314.367,386.507,314.367Zm79.756,87.253a84.676,84.676,0,0,1-4.731,34.011A82.1,82.1,0,0,1,442.8,465.406a80.008,80.008,0,0,1-93.3,15.442,84.34,84.34,0,0,1-23.071-17.321,86.5,86.5,0,0,1-14.057-20.367,87.615,87.615,0,0,1-6.574-18.182,100.154,100.154,0,0,1-2.05-12.4c-.2-2.91-.3-4.462-.3-4.462s-.025,1.559-.07,4.482a88.289,88.289,0,0,0,1.078,12.662,83.491,83.491,0,0,0,5.525,19.037A84.655,84.655,0,0,0,323.5,466.237c1.264,1.48,2.621,2.938,4.033,4.376a87.192,87.192,0,0,1-26.23-62.5c0-47.817,38.224-86.72,85.208-86.72a84.26,84.26,0,0,1,61.649,26.948c-1.491-1.528-3.006-2.989-4.543-4.35a82.743,82.743,0,0,0-21.557-13.757,79.855,79.855,0,0,0-18.7-5.625,83.874,83.874,0,0,0-12.446-1.1l-4.4.071,4.389.308a95.556,95.556,0,0,1,12.183,2.085,83.494,83.494,0,0,1,37.883,20.994,85.579,85.579,0,0,1,17.021,23.482A84.189,84.189,0,0,1,466.263,401.62Z" fill="#218b89"/>
        <path id="Path_3011" data-name="Path 3011" d="M375.234,507.05,372,506.478c-1.17-.277-2.436-.527-3.782-.817-2.685-.632-5.673-1.46-8.885-2.458-1.6-.509-3.243-1.141-4.943-1.744-1.663-.727-3.435-1.306-5.169-2.134a109.3,109.3,0,0,1-10.682-5.519,116.555,116.555,0,0,1-10.581-7.242,101.567,101.567,0,0,1-18.53-18.867,118.954,118.954,0,0,1-7.112-10.77,113.667,113.667,0,0,1-5.422-10.869c-.813-1.765-1.386-3.567-2.1-5.26-.593-1.731-1.215-3.4-1.715-5.03-.983-3.268-1.794-6.31-2.418-9.041-.286-1.37-.53-2.66-.8-3.85-.2-1.2-.393-2.306-.564-3.3-.367-2-.513-3.591-.679-4.675s-.24-1.668-.24-1.668-.055.583-.157,1.674c-.054,1.092-.312,2.708-.293,4.762-.017,1.031-.036,2.174-.056,3.418.03,1.242.115,2.584.179,4.026s.27,2.962.414,4.581.507,3.286.773,5.053c.314,1.756.746,3.564,1.151,5.454.528,1.849,1.012,3.793,1.69,5.728a90.165,90.165,0,0,0,4.858,11.976,96.128,96.128,0,0,0,7.118,11.862,88.469,88.469,0,0,0,19.912,20.258,94.065,94.065,0,0,0,11.657,7.24,87.256,87.256,0,0,0,11.766,4.944c1.9.688,3.809,1.187,5.629,1.717,1.855.413,3.632.854,5.357,1.174,1.736.27,3.372.643,4.964.787s3.083.355,4.5.422,2.736.153,3.957.184l3.369-.054c2.027.02,3.586-.242,4.665-.3l1.647-.158-1.637-.243C378.782,507.571,377.191,507.423,375.234,507.05Z" fill="#218b89"/>
      </g>
      <path id="Path_3012" data-name="Path 3012" d="M437.391,316.963a87.252,87.252,0,0,0-11.766-4.944c-1.9-.689-3.809-1.186-5.629-1.718-1.855-.412-3.632-.853-5.357-1.173-1.736-.271-3.371-.644-4.964-.787s-3.084-.354-4.5-.423-2.735-.153-3.956-.184l-3.369.054c-2.027-.02-3.587.243-4.665.3l-1.647.158,1.637.244c1.06.167,2.651.316,4.607.689l3.235.571c1.17.278,2.436.528,3.782.818,2.685.631,5.674,1.459,8.886,2.459,1.6.507,3.242,1.139,4.943,1.743,1.662.727,3.434,1.3,5.168,2.133a108.961,108.961,0,0,1,10.681,5.52,116.2,116.2,0,0,1,10.582,7.241,101.651,101.651,0,0,1,18.531,18.866A119.382,119.382,0,0,1,470.7,359.3a113.926,113.926,0,0,1,5.423,10.869c.812,1.766,1.384,3.568,2.093,5.26.6,1.731,1.216,3.4,1.716,5.03.983,3.269,1.794,6.31,2.418,9.042.286,1.369.53,2.658.8,3.849l.563,3.3c.369,2,.514,3.592.68,4.677s.24,1.666.24,1.666.055-.583.157-1.674c.054-1.092.312-2.708.294-4.762.016-1.031.035-2.173.055-3.416-.03-1.243-.115-2.586-.179-4.028s-.27-2.962-.414-4.581-.507-3.286-.773-5.053c-.314-1.755-.746-3.564-1.151-5.453-.528-1.85-1.013-3.794-1.69-5.729a90.22,90.22,0,0,0-4.858-11.976,96.078,96.078,0,0,0-7.118-11.862A88.49,88.49,0,0,0,449.048,324.2,93.749,93.749,0,0,0,437.391,316.963Z" fill="#218b89"/>
    </g>
    <g id="Group_892" data-name="Group 892" transform="translate(-316.411 -3836.373)">
      <g id="Group_888" data-name="Group 888" opacity="0.2">
        <g id="Group_884" data-name="Group 884">
          <path id="Path_3013" data-name="Path 3013" d="M232.571,52.522H234.2a115.7,115.7,0,0,1,50.26,11.855c24.244,11.808,44.245,32.386,55.936,57.205-.734.024-1.453.062-2.182.077q-78.222-.108-156.446-.019-15.516-15.914-30.982-31.889c-.533-.43-.951-1.39-1.759-1.132A121.721,121.721,0,0,1,185.165,63.04,116,116,0,0,1,232.571,52.522Z" fill="#c40028"/>
        </g>
        <g id="Group_885" data-name="Group 885">
          <path id="Path_3014" data-name="Path 3014" d="M115,164.238a122.825,122.825,0,0,1,34.035-75.619c.808-.258,1.226.7,1.759,1.132q15.468,15.963,30.982,31.889,25.777,26.61,51.62,53.154-25.8,26.617-51.648,53.2c-10.585,10.824-21.1,21.715-31.664,32.558-.417.659-1.118.1-1.6-.12A122.909,122.909,0,0,1,115,185.26a3.159,3.159,0,0,0-.418-2.9v-15.5A2.88,2.88,0,0,0,115,164.238Z" fill="#1e6125"/>
        </g>
        <g id="Group_886" data-name="Group 886">
          <path id="Path_3015" data-name="Path 3015" d="M181.772,121.64q78.224-.022,156.446.019c.729.019,1.458.028,2.191.028A125,125,0,0,1,352.2,173.934V175.7a124.343,124.343,0,0,1-11.825,52.237c-.743-.014-1.485-.01-2.218.014-52.14.086-104.275,0-156.41.043q25.777-26.639,51.648-53.2Q207.6,148.2,181.772,121.64Z" fill="#fff"/>
        </g>
        <g id="Group_887" data-name="Group 887">
          <path id="Path_3016" data-name="Path 3016" d="M181.744,227.991c52.135-.043,104.27.043,156.41-.043.747.01,1.494.038,2.25.067a122.061,122.061,0,0,1-47.986,52.92,116.3,116.3,0,0,1-56.84,16.15h-6.149A117.616,117.616,0,0,1,178.6,283.3a123.543,123.543,0,0,1-30.114-22.866c.478.215,1.179.779,1.6.12C160.643,249.706,171.159,238.815,181.744,227.991Z" fill="#040506"/>
        </g>
      </g>
      <g id="Group_890" data-name="Group 890">
        <path id="Path_3017" data-name="Path 3017" d="M122.759,217.332" fill="#218b89"/>
        <g id="Group_889" data-name="Group 889">
          <path id="Path_3018" data-name="Path 3018" d="M239.625,16.843c-91.449,0-165.848,73.5-165.848,163.844s74.4,163.844,165.848,163.844,165.849-73.5,165.849-163.844S331.074,16.843,239.625,16.843ZM386.549,169.078l.256,3.77c.054,1.261.048,2.527.077,3.794l.062,3.807-.124,3.813-.138,3.969L386.353,192l-.337,3.777-.532,3.832a150.9,150.9,0,0,1-7.608,30.3,146.3,146.3,0,0,1-34.5,53.274,148.673,148.673,0,0,1-53.928,34.076,156.477,156.477,0,0,1-30.675,7.507,151.438,151.438,0,0,1-87.29-14.077,150.869,150.869,0,0,1-68.192-67.439,153.1,153.1,0,0,1-12-32.477,172.959,172.959,0,0,1-3.695-22.13c-.347-5.19-.531-7.958-.531-7.958s-.036,2.78-.1,7.989a153.415,153.415,0,0,0,2.054,22.557,145.682,145.682,0,0,0,10.223,33.878A150.365,150.365,0,0,0,124.11,284.12c1.864,2.109,3.847,4.191,5.884,6.254A152.842,152.842,0,0,1,83.5,180.687c0-85.049,70.038-154.241,156.127-154.241A156.572,156.572,0,0,1,351.073,72.814c-2.229-2.163-4.478-4.266-6.76-6.235a152.847,152.847,0,0,0-39.479-24.565,150.291,150.291,0,0,0-34.29-10.1,159.131,159.131,0,0,0-22.839-2.034l-8.079.1,8.062.524a179.2,179.2,0,0,1,22.4,3.645,154.7,154.7,0,0,1,69.751,37.315,152.817,152.817,0,0,1,31.4,41.9A146.806,146.806,0,0,1,386.549,169.078Z" fill="#218b89"/>
          <path id="Path_3019" data-name="Path 3019" d="M239.625,52.522c-71.534,0-129.733,57.495-129.733,128.165s58.2,128.166,129.733,128.166S369.36,251.358,369.36,180.687,311.161,52.522,239.625,52.522Zm112.33,119.289a112.658,112.658,0,0,1-74.249,113.261,116.043,116.043,0,0,1-90.2-4.944,116.072,116.072,0,0,1-61.551-76.383,133.224,133.224,0,0,1-2.888-16.957c-.28-3.978-.429-6.1-.429-6.1s-.034,2.132-.1,6.128a117.084,117.084,0,0,0,1.519,17.311,111.567,111.567,0,0,0,7.782,26.028,115.192,115.192,0,0,0,19.037,30c1.781,2.023,3.692,4.017,5.68,5.983a117.519,117.519,0,0,1-36.943-85.449c0-65.374,53.836-118.562,120.011-118.562a120.349,120.349,0,0,1,86.828,36.843c-2.1-2.089-4.233-4.087-6.4-5.947a117.121,117.121,0,0,0-30.362-18.809,115.124,115.124,0,0,0-26.342-7.69,121.683,121.683,0,0,0-17.529-1.506l-6.2.1,6.182.422a138.2,138.2,0,0,1,17.158,2.849,118.736,118.736,0,0,1,53.357,28.7,117.231,117.231,0,0,1,23.973,32.1A112.486,112.486,0,0,1,351.955,171.811Z" fill="#218b89"/>
          <path id="Path_3020" data-name="Path 3020" d="M223.748,315.951l-4.555-.781c-1.648-.38-3.432-.721-5.328-1.117-3.781-.864-7.99-2-12.514-3.362-2.259-.7-4.567-1.559-6.962-2.384-2.342-.994-4.838-1.785-7.28-2.917a155.9,155.9,0,0,1-15.044-7.546,164.335,164.335,0,0,1-14.9-9.9,156.539,156.539,0,0,1-13.9-12.054,156.125,156.125,0,0,1-12.2-13.74,162.382,162.382,0,0,1-10.016-14.726,153.4,153.4,0,0,1-7.638-14.859c-1.144-2.413-1.951-4.877-2.949-7.192-.837-2.366-1.712-4.646-2.416-6.876-1.385-4.468-2.527-8.627-3.4-12.361-.4-1.872-.747-3.636-1.133-5.263-.289-1.644-.554-3.153-.794-4.516-.518-2.734-.724-4.91-.957-6.392s-.338-2.28-.338-2.28l-.221,2.289c-.077,1.493-.439,3.7-.413,6.51-.024,1.41-.05,2.972-.079,4.672.042,1.7.162,3.534.253,5.506s.38,4.049.582,6.263.715,4.492,1.089,6.907c.442,2.4,1.051,4.873,1.622,7.457.743,2.529,1.425,5.185,2.379,7.832a121.336,121.336,0,0,0,6.843,16.372A130.623,130.623,0,0,0,123.5,267.711a136.457,136.457,0,0,0,12.89,14.967,137.3,137.3,0,0,0,15.155,12.728,132.858,132.858,0,0,0,16.418,9.9,124.939,124.939,0,0,0,16.572,6.759c2.678.942,5.365,1.622,7.928,2.348,2.613.565,5.115,1.167,7.545,1.605,2.445.369,4.749.88,6.991,1.076s4.343.484,6.339.577,3.853.209,5.573.251l4.745-.073c2.855.026,5.051-.332,6.57-.406l2.319-.217-2.305-.332C228.744,316.664,226.5,316.461,223.748,315.951Z" fill="#218b89"/>
        </g>
        <path id="Path_3021" data-name="Path 3021" d="M311.291,56.07a124.985,124.985,0,0,0-16.571-6.759c-2.679-.941-5.366-1.622-7.928-2.349-2.613-.563-5.116-1.166-7.545-1.6-2.446-.37-4.749-.88-6.992-1.076s-4.343-.484-6.339-.578-3.853-.208-5.571-.251l-4.746.074c-2.855-.027-5.052.332-6.571.406l-2.319.216,2.306.333c1.493.228,3.733.432,6.489.943,1.375.234,2.9.5,4.555.78,1.648.38,3.432.722,5.327,1.118,3.782.863,7.991,1.995,12.515,3.362,2.259.694,4.567,1.558,6.962,2.383,2.342.994,4.838,1.785,7.28,2.917a155.315,155.315,0,0,1,15.043,7.546,164.139,164.139,0,0,1,14.9,9.9,140.947,140.947,0,0,1,26.1,25.793A162.788,162.788,0,0,1,358.2,113.949a153.873,153.873,0,0,1,7.638,14.861c1.144,2.414,1.95,4.877,2.948,7.191.837,2.367,1.713,4.646,2.417,6.877,1.384,4.468,2.526,8.627,3.4,12.361.4,1.873.746,3.635,1.132,5.263.29,1.643.555,3.152.794,4.516.519,2.734.724,4.91.957,6.393s.338,2.279.338,2.279.078-.8.221-2.289c.077-1.493.44-3.7.414-6.51.024-1.41.049-2.972.078-4.672-.042-1.7-.161-3.535-.252-5.506s-.38-4.05-.583-6.263-.714-4.492-1.089-6.908c-.442-2.4-1.051-4.873-1.621-7.455-.743-2.53-1.426-5.187-2.38-7.832a121.177,121.177,0,0,0-6.843-16.374,130.555,130.555,0,0,0-10.024-16.217A136.266,136.266,0,0,0,342.864,78.7,137.418,137.418,0,0,0,327.71,65.968,132.785,132.785,0,0,0,311.291,56.07Z" fill="#218b89"/>
      </g>
      <path id="Path_3022" data-name="Path 3022" d="M258.7,166.8V120.848a60.144,60.144,0,0,1,7.218,1.964c4.842,1.69,8.243,3.805,9.478,5.808a17.572,17.572,0,0,0-8.092,15.2c0,11.309,7.693,18.333,20.077,18.333,11.046,0,20.033-10.322,20.033-23.01,0-5.969-2.053-17.38-15.8-26.741-8.353-5.686-19.381-9.464-32.913-11.306V90.6a3.045,3.045,0,0,0-3.1-2.993h-5.561a3.045,3.045,0,0,0-3.1,2.993v9.417q-4.407-.228-9.094-.234c-4.09,0-7.943.15-11.612.411V90.6a3.046,3.046,0,0,0-3.1-2.993h-5.561a3.045,3.045,0,0,0-3.1,2.993v10.949c-32.678,5.369-44.91,22.094-44.91,36.793,0,24.892,21.585,36.339,44.91,44.722v54.585a78.688,78.688,0,0,1-8.421-2.68c-7.516-2.91-11.495-5.971-13.1-8.365,5.916-1.894,13.267-6.706,13.267-16.218,0-12.612-6.822-19.279-19.727-19.279-10.864,0-21.826,6.84-21.826,22.121a38.289,38.289,0,0,0,12.608,28.213c8.613,8.027,21.091,13.23,37.2,15.583v13.755a3.047,3.047,0,0,0,3.1,2.994h5.561a3.047,3.047,0,0,0,3.1-2.994V258.208q4.734.271,9.806.273c3.783,0,7.4-.1,10.9-.269v12.564a3.046,3.046,0,0,0,3.1,2.994H255.6a3.047,3.047,0,0,0,3.1-2.994V257.245c33.993-4.04,51.206-18.039,51.206-41.788C309.907,188.343,284.3,175.711,258.7,166.8Zm26.8-7.717a20.687,20.687,0,0,1-2.183-.033,18.313,18.313,0,0,1-2.838-.4l-1.6-.444c-.533-.213-1.1-.416-1.652-.683a12.958,12.958,0,0,1-3.237-2.16,12.315,12.315,0,0,1-2.61-3.244,15.05,15.05,0,0,1-1.505-3.961,17.54,17.54,0,0,1-.327-2.115c-.079-.7-.058-1.317-.092-1.972-.007-.764.078-1.389.13-2.075.1-.668.243-1.324.372-1.965a14.464,14.464,0,0,1,1.441-3.51,12.771,12.771,0,0,1,2.033-2.714,13.15,13.15,0,0,1,2.174-1.839,12.9,12.9,0,0,1,1.891-1.086,9.41,9.41,0,0,1,1.767-.661,13.016,13.016,0,0,0-1.5,1.067,18.078,18.078,0,0,0-1.535,1.383,16.638,16.638,0,0,0-1.677,2.009,14.77,14.77,0,0,0-1.471,2.636,16.41,16.41,0,0,0-.961,3.164c-.071.57-.157,1.146-.208,1.733-.01.578-.02,1.164-.03,1.754.046.631.046,1.324.132,1.916a15.4,15.4,0,0,0,.319,1.758,12.8,12.8,0,0,0,1.2,3.382,11.945,11.945,0,0,0,2.022,2.82,13.748,13.748,0,0,0,2.591,2.093c.457.29.943.507,1.39.768l1.377.613c.919.321,1.775.62,2.562.812.78.223,1.485.326,2.061.468l1.844.307S286.708,158.991,285.5,159.08Zm-23.221-53.726c.738.046,1.638.092,2.667.183,1.02.129,2.175.278,3.431.478,1.267.156,2.607.476,4.03.8a43.667,43.667,0,0,1,4.433,1.222c1.533.449,3.067,1.084,4.629,1.7,1.51.741,3.1,1.383,4.575,2.267.733.443,1.485.855,2.2,1.323l2.1,1.448a24.035,24.035,0,0,1,1.955,1.568,19.687,19.687,0,0,1,1.8,1.649,31.04,31.04,0,0,1,3.059,3.443,26.893,26.893,0,0,1,2.189,3.466,23.042,23.042,0,0,1,1.419,3.12c.344.964.558,1.833.756,2.521.254,1.406.371,2.218.371,2.218s-.379-.733-.993-2.031l-1.269-2.193c-.567-.807-1.12-1.748-1.882-2.675-.694-.97-1.6-1.9-2.486-2.928-.985-.952-1.994-1.964-3.148-2.909a45.172,45.172,0,0,0-3.654-2.778l-1.983-1.3c-.674-.422-1.391-.791-2.085-1.19-1.356-.853-2.851-1.495-4.258-2.228-1.486-.584-2.86-1.358-4.307-1.864-1.434-.532-2.788-1.143-4.134-1.574s-2.582-.954-3.774-1.3c-1.185-.363-2.268-.73-3.231-1.058l-2.524-.752c-1.4-.438-2.2-.718-2.2-.718S260.8,105.274,262.281,105.354ZM226.243,120.1a81.963,81.963,0,0,1,13.858-1.147h0c2.292,0,4.584.087,6.845.249V162.9l-3.149-1.008c-6.109-1.952-12.115-3.874-17.557-5.9Zm0,66.956,3.391,1.108c5.984,1.949,11.875,3.871,17.315,5.931v46.3a74.729,74.729,0,0,1-8.154.444,94.507,94.507,0,0,1-12.552-.875ZM203.3,137.73c0-6.648,4.569-11.233,11.192-14.209v27.347C207.678,147.215,203.3,143.021,203.3,137.73ZM216.5,240.9c-.119-4.459-.293-8.917-.33-13.377q-.092-6.955-.053-13.911c.016-4.637.084-9.274.234-13.911.077-2.319.111-4.637.223-6.956s.2-4.637.363-6.956c.164,2.319.245,4.638.362,6.956s.147,4.637.223,6.956c.15,4.637.218,9.274.234,13.911q.05,6.955-.053,13.911c-.038,4.637-.228,9.274-.345,13.911l-.014.581-.535-.191c-2.682-.96-5.382-1.866-8.048-2.874C211.357,239.549,213.924,240.24,216.5,240.9Zm-.6-103.741c.005-2.784.144-5.569.357-7.658s.482-3.481.482-3.481.282,1.392.482,3.481.352,4.874.357,7.658-.146,5.57-.359,7.659-.48,3.481-.48,3.481-.281-1.393-.48-3.481S215.908,139.94,215.9,137.155Zm1.845,116.556c-.275,5.875-.435,11.749-.808,17.624-.359-5.642-.525-11.284-.78-16.924-2.4-.244-4.792-.54-7.172-.967a68.784,68.784,0,0,1-7.739-1.814,59.336,59.336,0,0,1-7.5-2.7,52.523,52.523,0,0,1-7.064-3.731,43.863,43.863,0,0,1-11.81-10.65,37.829,37.829,0,0,1-6.866-14.216,30.875,30.875,0,0,1-.692-3.92,23.593,23.593,0,0,1-.133-4.009,22.581,22.581,0,0,1,1.744-7.876,16.9,16.9,0,0,1,5-6.568,18.642,18.642,0,0,1,7.521-3.5,21.322,21.322,0,0,1,4.113-.5,28.851,28.851,0,0,1,4.055.2,17.094,17.094,0,0,1,7.7,2.62,12.121,12.121,0,0,1,4.716,6.315,20.189,20.189,0,0,1,.837,7.586,22.346,22.346,0,0,0-1.556-7.329,11.139,11.139,0,0,0-4.759-5.434,16.6,16.6,0,0,0-7.119-1.9,23.462,23.462,0,0,0-7.411.648,16.042,16.042,0,0,0-6.358,3.276,14.814,14.814,0,0,0-4.031,5.659,19.771,19.771,0,0,0-1.331,6.919,24.225,24.225,0,0,0,.172,3.563,27.966,27.966,0,0,0,.66,3.547,37.03,37.03,0,0,0,6.356,13.074,43.717,43.717,0,0,0,10.868,10.083,49.572,49.572,0,0,0,6.593,3.7,61.533,61.533,0,0,0,7.074,2.876c2.417.84,4.9,1.5,7.406,2.11s5.053,1.059,7.612,1.474l.74.12Zm-.537-148.056a84.272,84.272,0,0,0-22.672,7.528,46.5,46.5,0,0,0-9.583,6.609,30.667,30.667,0,0,0-6.874,8.965,23.508,23.508,0,0,0-1.823,5.251,19.911,19.911,0,0,0-.439,2.706c-.061.421-.059.958-.088,1.437-.014.408.01.93.013,1.389a35.211,35.211,0,0,0,.55,5.651,29.5,29.5,0,0,0,1.574,5.465,31.6,31.6,0,0,0,2.578,5.137,40.755,40.755,0,0,0,3.489,4.686,43.249,43.249,0,0,0,4.2,4.2c1.49,1.323,3.077,2.557,4.688,3.779a47.533,47.533,0,0,1-5.179-3.2,44.867,44.867,0,0,1-4.748-3.845,33.619,33.619,0,0,1-4.077-4.587,29.218,29.218,0,0,1-3.137-5.294,31.938,31.938,0,0,1-2.034-5.814,33.212,33.212,0,0,1-.836-6.083c-.021-.525-.064-.988-.065-1.566.014-.505-.008-.955.042-1.515a22.836,22.836,0,0,1,.4-3.147,25.708,25.708,0,0,1,1.984-5.958,31.226,31.226,0,0,1,7.571-9.942,44.664,44.664,0,0,1,10.4-6.9,61.975,61.975,0,0,1,11.663-4.28q2.994-.805,6.04-1.355c1.808-.328,3.624-.586,5.441-.819.254-4.468.429-8.935.8-13.4.386,4.7.556,9.406.834,14.109l.038.65ZM250.486,244.28l-.668.078a73.8,73.8,0,0,1-13.48.234c-2.239-.142-4.47-.376-6.681-.723s-4.413-.733-6.581-1.251c2.219.267,4.43.513,6.65.674s4.44.266,6.657.315,4.435.006,6.644-.122c1.98-.121,3.953-.284,5.914-.535-.074-7.611-.082-15.222.033-22.833.03-3.917.179-7.833.262-11.75.1-3.916.27-7.833.482-11.749.212,3.916.383,7.833.482,11.749s.233,7.833.263,11.75c.118,7.833.109,15.666.03,23.5ZM248.72,141.62c.006-4.9.144-9.792.357-13.464.094-1.836.247-3.366.319-4.437.089-1.071.164-1.683.164-1.683s.073.612.163,1.683c.072,1.071.225,2.6.318,4.437.214,3.672.352,8.568.357,13.464s-.146,9.792-.359,13.464c-.094,1.836-.246,3.366-.317,4.437-.089,1.071-.162,1.683-.162,1.683s-.074-.612-.163-1.683c-.072-1.071-.223-2.6-.318-4.437C248.867,151.412,248.726,146.516,248.72,141.62Zm.795-36.367q-5.281-.075-10.549-.494l-.659-.054a1.97,1.97,0,0,1-.26-.031l-.33-.012-1.321-.045c-.882-.02-1.764-.089-2.647-.137-1.764-.115-3.53-.258-5.3-.518,1.749-.362,3.5-.607,5.257-.823.877-.1,1.753-.218,2.632-.29l1.316-.122.33-.03.4-.011.661-.01c3.118-.037,6.231.036,9.342.181.06-1.927.154-3.854.3-5.782.205-2.334.44-4.668.873-7,.431,2.335.666,4.669.872,7q.264,3.5.343,7l.025,1.194Zm9.186,94.012c9.067,4.793,15.11,10.682,15.11,19.033,0,10.873-6.992,16.56-15.11,19.5Zm19.875,21.806a24.034,24.034,0,0,1-.795,4.482,19.816,19.816,0,0,1-3.988,7.51,22.483,22.483,0,0,1-7.3,5.569c-.584.318-1.088.484-1.409.634l-.5.213s.649-.4,1.743-1.118c.548-.362,1.2-.815,1.908-1.381s1.476-1.23,2.267-1.993a20.642,20.642,0,0,0,4.306-5.975,20.2,20.2,0,0,0,1.408-3.857,22.936,22.936,0,0,0,.687-4.163,22.154,22.154,0,0,0-.013-4.257,18.779,18.779,0,0,0-.833-3.995,20.405,20.405,0,0,0-3.532-6.429,31.891,31.891,0,0,0-3.678-3.887l-1.547-1.365.462.286c.3.191.756.44,1.289.834a25.408,25.408,0,0,1,4.2,3.548,19.981,19.981,0,0,1,4.206,6.551,18.1,18.1,0,0,1,1.049,4.288A23.667,23.667,0,0,1,278.576,221.071Z" fill="#218b89"/>
    </g>
    <g id="Group_899" data-name="Group 899" transform="translate(-309.431 -3829.373)">
      <g id="Group_894" data-name="Group 894">
        <path id="Path_3023" data-name="Path 3023" d="M151.1,358.742a1.384,1.384,0,0,1,1.831,1.214c.033,3.539,0,7.08.018,10.619a1.913,1.913,0,0,1-.4,1.533,1.419,1.419,0,0,1-2.074-.1,1.708,1.708,0,0,1-.3-1.214c.008-3.541,0-7.08,0-10.619A1.4,1.4,0,0,1,151.1,358.742Z" fill="#218b89"/>
        <path id="Path_3024" data-name="Path 3024" d="M112.366,369.122a1.417,1.417,0,0,1,1.754.736c1.829,3.177,3.685,6.339,5.488,9.533a1.372,1.372,0,0,1-1.338,1.995,1.493,1.493,0,0,1-1.263-.946c-1.77-3.09-3.563-6.167-5.333-9.257A1.4,1.4,0,0,1,112.366,369.122Z" fill="#218b89"/>
        <path id="Path_3025" data-name="Path 3025" d="M189.792,369.118a1.4,1.4,0,0,1,1.708,1.928c-1.841,3.236-3.712,6.459-5.583,9.677a1.407,1.407,0,0,1-2.468-.137c-.37-.8.239-1.535.608-2.2,1.559-2.714,3.136-5.416,4.687-8.137C189.007,369.812,189.257,369.275,189.792,369.118Z" fill="#218b89"/>
        <g id="Group_893" data-name="Group 893">
          <path id="Path_3026" data-name="Path 3026" d="M136.829,387.354a1.4,1.4,0,0,1,1.322-1.022q13.839-.014,27.681-.005a1.357,1.357,0,0,1,1.23.7c3.954,6.219,7.935,12.419,11.881,18.643q6.486.014,12.97,0a1.37,1.37,0,0,1,1.316.707c3.59,6.22,7.157,12.455,10.765,18.666,4.311-.025,8.621,0,12.93-.016a1.34,1.34,0,0,1,1.254.664q5.773,9.5,11.546,19.006a1.678,1.678,0,0,1,.243,1.738q-10.9,26.163-21.8,52.322a1.369,1.369,0,0,1-1.422.927q-66.25-.014-132.5-.005a1.383,1.383,0,0,1-1.416-1.831q3.866-12.945,7.759-25.882a63.558,63.558,0,0,1,2.681-6.945q8.138-19.515,16.268-39.036a1.36,1.36,0,0,1,1.254-.945c3.244-.022,6.491,0,9.738,0q3.849-9.223,7.691-18.444a1.37,1.37,0,0,1,1.373-.913c3.2-.012,6.408.006,9.61-.007C131.728,399.561,134.287,393.46,136.829,387.354Zm2.068,2.265q-5.062,12.182-10.146,24.358c8.219-.024,16.44,0,24.662-.016,3.406-8.3,6.9-16.577,10.342-24.871q-12.14.01-24.279,0C139.111,388.986,139.014,389.382,138.9,389.619Zm17.287,24.86a1.923,1.923,0,0,0-.217,1.524c2.068,6.856,4.11,13.72,6.18,20.574a16.012,16.012,0,0,0,.741,2.247q6.9-15.814,13.726-31.666-5.271-8.194-10.484-16.425C162.751,398.621,159.53,406.576,156.184,414.479Zm-35.7-6.047c-4.652,11.048-9.225,22.129-13.85,33.188,3.578-.02,7.157.022,10.736-.022,2.585-8.8,5.259-17.58,7.887-26.369.834-2.289,1.893-4.495,2.749-6.777C125.5,408.432,122.994,408.47,120.486,408.432Zm58.628.022q-7.15,16.482-14.289,32.973c.009.042.027.129.036.173,3.554.037,7.113.011,10.669.009q7.164-16.572,14.366-33.131C186.3,408.412,182.708,408.461,179.114,408.454Zm1.092,29.355c-.712,1.78-1.625,3.492-2.223,5.313.783,3.047,1.794,6.042,2.663,9.072,1.438,4.738,2.831,9.491,4.282,14.224,2.632-6.045,5.085-12.167,7.653-18.24,2.982-7.228,6.054-14.423,8.991-21.665-.688-1.384-1.544-2.68-2.289-4.034-2.376-4.094-4.689-8.223-7.111-12.289Q186.2,424,180.206,437.809Zm-59.961,3.8c1.924.013,3.848,0,5.775.006q17.351.011,34.705-.013-3.093-10.368-6.215-20.729c-.407-1.382-.81-2.767-1.248-4.14q-12.77.036-25.537,0C125.2,425.016,122.744,433.319,120.245,441.609ZM84.52,469.265q5.153,0,10.309,0c.374.11.478-.255.553-.518q3.795-12.71,7.613-25.413a23.788,23.788,0,0,1,1.042-2.716c1.767-4.28,3.585-8.54,5.326-12.831-2.513.009-5.023.025-7.534-.006C96.015,441.589,90.3,455.441,84.52,469.265ZM204.087,427.8q-8.624,20.739-17.272,41.469c3.6-.049,7.224.093,10.809-.071,2.572-6.009,5.034-12.072,7.571-18.1,3.218-7.772,6.5-15.52,9.685-23.306C211.282,427.807,207.685,427.789,204.087,427.8Zm10.484,8.044q-6.91,16.588-13.826,33.179a9.286,9.286,0,0,0-.646,1.737,14.521,14.521,0,0,0,.529,1.966c2.152,7.113,4.255,14.239,6.42,21.348,1.9-4.264,3.6-8.619,5.439-12.915,4.9-11.742,9.761-23.495,14.691-35.222-3.263-5.49-6.633-10.913-9.913-16.392C216.252,431.587,215.493,433.75,214.571,435.84ZM98.131,469.263c1.922,0,3.844-.007,5.766,0q17.355.023,34.714,0c-2.057-6.9-4.142-13.8-6.2-20.7-.423-1.392-.814-2.792-1.263-4.176q-12.77.017-25.542-.007Q101.84,456.812,98.131,469.263Zm35.933-24.883c2.15,7.1,4.249,14.217,6.414,21.313,2.183-6.91,4.161-13.886,6.3-20.811.019-.166.247-.646-.171-.5C142.427,444.382,138.244,444.4,134.064,444.38Zm8.305,24.883c1.92,0,3.844-.007,5.766,0q17.355.023,34.71,0c-2.05-6.905-4.141-13.8-6.2-20.7-.42-1.4-.825-2.8-1.262-4.189-8.514.009-17.027.027-25.538,0C147.321,452.665,144.855,460.966,142.369,469.263ZM76,496.917c1.915,0,3.831-.005,5.746,0,11.583-.005,23.164.017,34.747-.009-2.068-6.921-4.158-13.835-6.224-20.758-.411-1.376-.812-2.754-1.247-4.118q-12.771.022-25.538-.009C80.97,480.313,78.506,488.62,76,496.917Zm35.954-24.89c2.113,7.12,4.274,14.227,6.39,21.348.781-2.287,1.4-4.62,2.124-6.925,1.426-4.81,2.9-9.608,4.31-14.423Q118.371,472.043,111.959,472.027Zm8.284,24.9c1.917-.011,3.835-.009,5.75,0q17.372-.008,34.743-.009c-2.064-6.921-4.172-13.83-6.215-20.758h-.027c-.385-1.382-.794-2.758-1.238-4.122q-12.767.025-25.531,0C125.2,480.317,122.735,488.625,120.243,496.923Zm35.945-24.893q3.2,10.665,6.4,21.332c2.22-7.086,4.279-14.222,6.44-21.326C164.75,472.027,160.47,472.038,156.188,472.03Zm8.288,24.884c1.915.009,3.831,0,5.746,0q17.371,0,34.745,0c-2.061-6.927-4.158-13.843-6.222-20.768-.413-1.376-.811-2.754-1.249-4.119q-12.77.01-25.538.005C169.439,480.319,166.978,488.622,164.476,496.914Z" fill="#218b89"/>
        </g>
        <path id="Path_3027" data-name="Path 3027" d="M84.064,397.448a1.7,1.7,0,0,1,1.478.3q4.622,2.678,9.252,5.353a1.388,1.388,0,1,1-1.462,2.358c-3.145-1.8-6.275-3.628-9.418-5.432A1.408,1.408,0,0,1,84.064,397.448Z" fill="#218b89"/>
        <path id="Path_3028" data-name="Path 3028" d="M218.121,397.47a1.365,1.365,0,0,1,1.849,1.2,1.38,1.38,0,0,1-.81,1.384q-4.625,2.658-9.236,5.337a1.5,1.5,0,0,1-1.619.111,1.405,1.405,0,0,1-.356-2.1,5.756,5.756,0,0,1,1.209-.8C212.155,400.91,215.1,399.125,218.121,397.47Z" fill="#218b89"/>
      </g>
      <g id="Group_895" data-name="Group 895" opacity="0.25">
        <path id="Path_3029" data-name="Path 3029" d="M138.9,389.619c.117-.237.214-.633.579-.527q12.14,0,24.279,0c-3.439,8.294-6.936,16.566-10.342,24.871-8.222.02-16.443-.008-24.662.016Q133.824,401.8,138.9,389.619Z" fill="#218b89"/>
        <path id="Path_3030" data-name="Path 3030" d="M120.486,408.432c2.508.038,5.014,0,7.522.02-.856,2.282-1.915,4.488-2.749,6.777-2.628,8.789-5.3,17.568-7.887,26.369-3.579.044-7.158,0-10.736.022C111.261,430.561,115.834,419.48,120.486,408.432Z" fill="#218b89"/>
        <path id="Path_3031" data-name="Path 3031" d="M179.114,408.454c3.594.007,7.188-.042,10.782.024q-7.22,16.549-14.366,33.131c-3.556,0-7.115.028-10.669-.009-.009-.044-.027-.131-.036-.173Q171.956,424.936,179.114,408.454Z" fill="#218b89"/>
        <path id="Path_3032" data-name="Path 3032" d="M84.52,469.265c5.779-13.824,11.5-27.676,17.309-41.484,2.511.031,5.021.015,7.534.006-1.741,4.291-3.559,8.551-5.326,12.831A23.788,23.788,0,0,0,103,443.334q-3.792,12.709-7.613,25.413c-.075.263-.179.628-.553.518Q89.673,469.265,84.52,469.265Z" fill="#218b89"/>
        <path id="Path_3033" data-name="Path 3033" d="M204.087,427.8c3.6-.007,7.195.011,10.793-.009-3.185,7.786-6.467,15.534-9.685,23.306-2.537,6.029-5,12.092-7.571,18.1-3.585.164-7.208.022-10.809.071Q195.448,448.529,204.087,427.8Z" fill="#218b89"/>
      </g>
      <g id="Group_896" data-name="Group 896" opacity="0.25">
        <path id="Path_3034" data-name="Path 3034" d="M156.184,414.479c3.346-7.9,6.567-15.858,9.946-23.746q5.212,8.229,10.484,16.425Q169.78,423,162.888,438.824a16.012,16.012,0,0,1-.741-2.247c-2.07-6.854-4.112-13.718-6.18-20.574A1.923,1.923,0,0,1,156.184,414.479Z" fill="#218b89"/>
        <path id="Path_3035" data-name="Path 3035" d="M180.206,437.809Q186.2,424,192.172,410.19c2.422,4.066,4.735,8.2,7.111,12.289.745,1.354,1.6,2.65,2.289,4.034-2.937,7.242-6.009,14.437-8.991,21.665-2.568,6.073-5.021,12.195-7.653,18.24-1.451-4.733-2.844-9.486-4.282-14.224-.869-3.03-1.88-6.025-2.663-9.072C178.581,441.3,179.494,439.589,180.206,437.809Z" fill="#218b89"/>
        <path id="Path_3036" data-name="Path 3036" d="M214.571,435.84c.922-2.09,1.681-4.253,2.694-6.3,3.28,5.479,6.65,10.9,9.913,16.392-4.93,11.727-9.8,23.48-14.691,35.222-1.836,4.3-3.536,8.651-5.439,12.915-2.165-7.109-4.268-14.235-6.42-21.348a14.521,14.521,0,0,1-.529-1.966,9.286,9.286,0,0,1,.646-1.737Q207.666,452.43,214.571,435.84Z" fill="#218b89"/>
        <path id="Path_3037" data-name="Path 3037" d="M134.064,444.38c4.18.018,8.363,0,12.545,0,.418-.148.19.332.171.5-2.141,6.925-4.119,13.9-6.3,20.811C138.313,458.6,136.214,451.48,134.064,444.38Z" fill="#218b89"/>
        <path id="Path_3038" data-name="Path 3038" d="M111.959,472.027q6.411.01,12.824,0c-1.409,4.815-2.884,9.613-4.31,14.423-.721,2.3-1.343,4.638-2.124,6.925C116.233,486.254,114.072,479.147,111.959,472.027Z" fill="#218b89"/>
        <path id="Path_3039" data-name="Path 3039" d="M156.188,472.03c4.282.008,8.562,0,12.844.006-2.161,7.1-4.22,14.24-6.44,21.326Q159.376,482.7,156.188,472.03Z" fill="#218b89"/>
      </g>
      <g id="Group_897" data-name="Group 897" opacity="0.1">
        <path id="Path_3040" data-name="Path 3040" d="M120.245,441.609c2.5-8.29,4.959-16.593,7.48-24.874q12.77.03,25.537,0c.438,1.373.841,2.758,1.248,4.14-6.406.067-12.811.016-19.216.029a15.677,15.677,0,0,0-2.851.091c-.463.351-.527,1.022-.735,1.539-1.913,6.357-3.83,12.713-5.688,19.083C124.093,441.606,122.169,441.622,120.245,441.609Z" fill="#218b89"/>
        <path id="Path_3041" data-name="Path 3041" d="M98.131,469.263q3.726-12.445,7.474-24.883,12.769.02,25.542.007c.449,1.384.84,2.784,1.263,4.176-5.97-.029-11.94,0-17.909-.012-1.5.023-3.01-.075-4.51.085-1.035,3.857-2.214,7.679-3.426,11.483-.759,3.083-1.889,6.063-2.668,9.144C101.975,469.256,100.053,469.265,98.131,469.263Z" fill="#218b89"/>
        <path id="Path_3042" data-name="Path 3042" d="M142.369,469.263c2.486-8.3,4.952-16.6,7.478-24.881,8.511.025,17.024.007,25.538,0,.437,1.391.842,2.791,1.262,4.189-5.967-.04-11.934-.009-17.9-.015a42.242,42.242,0,0,0-4.529.1c-1.159,4.545-2.71,8.977-3.937,13.5-.786,2.346-1.478,4.726-2.144,7.111C146.213,469.256,144.289,469.265,142.369,469.263Z" fill="#218b89"/>
        <path id="Path_3043" data-name="Path 3043" d="M76,496.917c2.5-8.3,4.965-16.6,7.484-24.894q12.771.022,25.538.009c.435,1.364.836,2.742,1.247,4.118-7.294.126-14.6-.007-21.89.06-.537-.082-.542.568-.712.92-1.944,6.6-3.959,13.187-5.921,19.787C79.836,496.912,77.92,496.921,76,496.917Z" fill="#218b89"/>
        <path id="Path_3044" data-name="Path 3044" d="M120.243,496.923c2.492-8.3,4.961-16.606,7.482-24.893q12.766.025,25.531,0c.444,1.364.853,2.74,1.238,4.122-6.325.106-12.653.016-18.979.049a22.852,22.852,0,0,0-3.28.075c-.858,2.267-1.367,4.66-2.163,6.954a32.342,32.342,0,0,0-.956,3.269q-1.585,5.2-3.123,10.42C124.078,496.914,122.16,496.912,120.243,496.923Z" fill="#218b89"/>
        <path id="Path_3045" data-name="Path 3045" d="M164.476,496.914c2.5-8.292,4.963-16.6,7.482-24.882q12.767.022,25.538-.005c.438,1.365.836,2.743,1.249,4.119-5.518.121-11.039.02-16.557.055-1.9.044-3.811-.1-5.7.06-.737,1.829-1.146,3.775-1.761,5.649q-2.265,7.5-4.5,15.007C168.307,496.91,166.391,496.923,164.476,496.914Z" fill="#218b89"/>
      </g>
      <g id="Group_898" data-name="Group 898" opacity="0.25">
        <path id="Path_3046" data-name="Path 3046" d="M132.443,420.993a15.677,15.677,0,0,1,2.851-.091c6.4-.013,12.81.038,19.216-.029q3.111,10.365,6.215,20.729-17.355.05-34.705.013c1.858-6.37,3.775-12.726,5.688-19.083C131.916,422.015,131.98,421.344,132.443,420.993Z" fill="#218b89"/>
        <path id="Path_3047" data-name="Path 3047" d="M109.991,448.636c1.5-.16,3.006-.062,4.51-.085,5.969.012,11.939-.017,17.909.012,2.059,6.9,4.144,13.8,6.2,20.7q-17.358,0-34.714,0c.779-3.081,1.909-6.061,2.668-9.144C107.777,456.315,108.956,452.493,109.991,448.636Z" fill="#218b89"/>
        <path id="Path_3048" data-name="Path 3048" d="M154.216,448.649a42.242,42.242,0,0,1,4.529-.1c5.968.006,11.935-.025,17.9.015,2.057,6.9,4.148,13.791,6.2,20.7q-17.355,0-34.71,0c.666-2.385,1.358-4.765,2.144-7.111C151.506,457.626,153.057,453.194,154.216,448.649Z" fill="#218b89"/>
        <path id="Path_3049" data-name="Path 3049" d="M88.384,476.21c7.295-.067,14.6.066,21.89-.06,2.066,6.923,4.156,13.837,6.224,20.758-11.583.026-23.164,0-34.747.009,1.962-6.6,3.977-13.183,5.921-19.787C87.842,476.778,87.847,476.128,88.384,476.21Z" fill="#218b89"/>
        <path id="Path_3050" data-name="Path 3050" d="M154.494,476.152h.027c2.043,6.928,4.151,13.837,6.215,20.758q-17.371.03-34.743.009,1.547-5.216,3.123-10.42a32.342,32.342,0,0,1,.956-3.269c.8-2.294,1.3-4.687,2.163-6.954a22.852,22.852,0,0,1,3.28-.075C141.841,476.168,148.169,476.258,154.494,476.152Z" fill="#218b89"/>
        <path id="Path_3051" data-name="Path 3051" d="M182.188,476.2c5.518-.035,11.039.066,16.557-.055,2.064,6.925,4.161,13.841,6.222,20.768q-17.371.016-34.745,0,2.236-7.509,4.5-15.007c.615-1.874,1.024-3.82,1.761-5.649C178.377,476.1,180.288,476.245,182.188,476.2Z" fill="#218b89"/>
      </g>
    </g>
    <ellipse id="Ellipse_35" data-name="Ellipse 35" cx="82.282" cy="84.204" rx="82.282" ry="84.204" transform="translate(-14.517 -3514.981)" fill="none" stroke="#218b89" stroke-miterlimit="10" stroke-width="3"/>
    <ellipse id="Ellipse_37" data-name="Ellipse 37" cx="77.16" cy="78.963" rx="77.16" ry="78.963" transform="translate(-9.395 -3509.739)" fill="none" stroke="#218b89" stroke-miterlimit="10" stroke-width="4"/>
    <g id="Group_922" data-name="Group 922" transform="translate(-315.9 -3838.511)">
      <g id="Group_904" data-name="Group 904">
        <path id="Path_3052" data-name="Path 3052" d="M392.162,340.877l.677-.01c.315,1.371-.512,2.565-1.045,3.735-.231-.15-.6-.211-.568-.575C391.132,342.893,391.852,341.922,392.162,340.877Z" fill="#218b89"/>
        <path id="Path_3053" data-name="Path 3053" d="M348.138,341.073c.6-.108.692.342.631.883.559-.117,1.7-.879,1.868.127a3.985,3.985,0,0,1-.545,1.645,3.72,3.72,0,0,1-2.27-.247C347.424,342.654,348.022,341.883,348.138,341.073Z" fill="#218b89"/>
        <path id="Path_3054" data-name="Path 3054" d="M379.464,342.6c-.065-.379.056-.92.515-.922a7.032,7.032,0,0,1,1.038,2c.261.676.78,1.42.457,2.169a1.105,1.105,0,0,1-1.041.9,8.18,8.18,0,0,0,.044-1.476A17.017,17.017,0,0,1,379.464,342.6Z" fill="#218b89"/>
        <path id="Path_3055" data-name="Path 3055" d="M352.549,343.794a1.124,1.124,0,0,1,.824-1.045c.231.93,1.048,1.554,1.178,2.526.1.457-.065,1.312-.684,1.079A19.035,19.035,0,0,0,352.549,343.794Z" fill="#218b89"/>
        <path id="Path_3056" data-name="Path 3056" d="M411.339,343.461a.728.728,0,0,1,.967-.2c.091.614-.415,1.043-.729,1.481a6.563,6.563,0,0,0-1.567,2.459,4.232,4.232,0,0,0,.209,2.333c.189.117.55.445.266.678-.3.284-.543-.228-.771-.353l.473-.21c-.242-.14-.487-.272-.731-.4a3.784,3.784,0,0,1-.2-2.968A9.666,9.666,0,0,1,411.339,343.461Z" fill="#218b89"/>
        <path id="Path_3057" data-name="Path 3057" d="M354.656,346.582a1.079,1.079,0,0,1,1.514-.318c.875.474,1.117,1.561,1.362,2.476-.161.36-.166.957-.669.962-.409-.034-.291-.482-.344-.771a1.846,1.846,0,0,0-.8-1.417c-.307-.1-.505.23-.673.433-.531.779-.929,1.645-1.416,2.453-.174-.008-.521-.02-.693-.027A6.531,6.531,0,0,1,354.656,346.582Z" fill="#218b89"/>
        <path id="Path_3058" data-name="Path 3058" d="M417.894,347.455c.089-.6.687-.516,1.12-.467.061.389-.032,1.39.566,1.177.54-.032.284-.959.894-.854a3.659,3.659,0,0,1,.783.825,2.664,2.664,0,0,1,1.092.269c-.312.489-.033,1.29.584.95.077-.483-.142-1.378.58-1.32.519.47,1.134,1.378.533,2.039a6.688,6.688,0,0,1-1.721.739c-.88-.117-.982-1.272-1.455-1.892-.654.235-1.3.82-2.026.615A3.568,3.568,0,0,1,417.894,347.455Z" fill="#218b89"/>
        <path id="Path_3059" data-name="Path 3059" d="M338.678,350.816c.854.129.724,1.2,1.047,1.83a.777.777,0,0,1-1.154.945A21.221,21.221,0,0,1,338.678,350.816Z" fill="#218b89"/>
        <path id="Path_3060" data-name="Path 3060" d="M436.816,359.494c.372-.528.691-1.29,1.409-1.317a2.031,2.031,0,0,1-.829,2.191c-2.573,2.21-5.284,4.241-7.978,6.282-1.013.8-2.056,1.846-3.379,1.931-.645.025-.663-.719-.586-1.2a3.812,3.812,0,0,1,1.259-.289c1.209-.563,2.089-1.65,3.209-2.362C432.159,362.9,434.5,361.215,436.816,359.494Z" fill="#218b89"/>
        <path id="Path_3061" data-name="Path 3061" d="M337.56,363.635c.119-.5.764-.257.787.169a3.94,3.94,0,0,1,.5,3.588c-.335.607-.543,1.662-1.406,1.5.135-1.04.77-1.977.649-3.059C337.944,365.091,337.669,364.384,337.56,363.635Z" fill="#218b89"/>
        <path id="Path_3062" data-name="Path 3062" d="M332.379,365.963c.212-.355.68-.049.556.352-.146,1.011-.936,1.706-1.259,2.641-.135.32-.45.643-.806.487a.884.884,0,0,1,.142-.947A15,15,0,0,0,332.379,365.963Z" fill="#218b89"/>
        <path id="Path_3063" data-name="Path 3063" d="M334.605,366.809c.363,0,.794-.019.8.492-.056,1.518-1.09,2.685-1.947,3.806a.483.483,0,0,1-.9-.137,2.577,2.577,0,0,1,.6-1.493A7.525,7.525,0,0,0,334.605,366.809Z" fill="#218b89"/>
        <path id="Path_3064" data-name="Path 3064" d="M423.208,367.208c.792.145.924,1.085,1.3,1.689.1.406.457.849.312,1.265-.538.169-.78-.582-1.087-.922C423.546,368.562,422.968,367.95,423.208,367.208Z" fill="#218b89"/>
        <path id="Path_3065" data-name="Path 3065" d="M445.057,370.321c.249-.545.9-.134.7.394a2.893,2.893,0,0,1-1.1,1.917c-2.365,1.6-4.706,3.24-7.125,4.748-.617.418-1.644.675-1.544,1.662a6.75,6.75,0,0,0,1.369,2.726c-.111.666-.8.235-1.031-.081-.647-1-1.684-2.041-1.29-3.375.244-1.243,1.495-1.676,2.415-2.249.849-.343,1.525-1.011,2.335-1.437a41.7,41.7,0,0,0,3.851-2.555A4.041,4.041,0,0,0,445.057,370.321Z" fill="#218b89"/>
        <path id="Path_3066" data-name="Path 3066" d="M451.751,384.039a.369.369,0,0,1,.624.375c-.058,1.3-.964,2.249-1.56,3.3-.857,1.439-1.851,2.775-2.771,4.165a13.826,13.826,0,0,0-1.972,2.783c-.11.389-.478.7-.859.479a2.694,2.694,0,0,1,.717-2.525A92.329,92.329,0,0,0,451.751,384.039Z" fill="#218b89"/>
        <path id="Path_3067" data-name="Path 3067" d="M447.429,387.265c-.524-.149-.989-.8-.409-1.231.784-.186,1.765.685,1.3,1.554a8.426,8.426,0,0,1-2.268,3.189c-.047-.115-.145-.345-.191-.46C446.421,389.335,447.332,388.452,447.429,387.265Z" fill="#218b89"/>
        <path id="Path_3068" data-name="Path 3068" d="M444.537,392.142c.31-.553.648-1.338,1.339-1.382.058.066.173.2.228.269a5.01,5.01,0,0,1-1.087,1.757c-.394.556-.717,1.569-1.562,1.256C443.611,393.29,444.244,392.82,444.537,392.142Z" fill="#218b89"/>
        <path id="Path_3069" data-name="Path 3069" d="M438.488,395.2c-.079-.4.165-.847.591-.8a11.084,11.084,0,0,1,2.524.861.833.833,0,0,1,.054,1.471c-.408.311-.622-.237-.71-.551-.457-.181-.913-.347-1.369-.519.055.443.351.938.053,1.351-.228.084-.612.174-.726-.124A6.909,6.909,0,0,1,438.488,395.2Z" fill="#218b89"/>
        <path id="Path_3070" data-name="Path 3070" d="M450.792,411.35l.186-.179c.741.23.135,1.1-.093,1.535-.342.46-.68,1.451-1.376,1.147C449.437,412.877,450.224,412.059,450.792,411.35Z" fill="#218b89"/>
        <path id="Path_3071" data-name="Path 3071" d="M453.33,421.935c.188-.03.563-.084.752-.113.235.952-.27,1.838-.463,2.744-.175.5-.317,1.338-1,1.209A10.375,10.375,0,0,1,453.33,421.935Z" fill="#218b89"/>
        <path id="Path_3072" data-name="Path 3072" d="M418.514,426.888c.694-.105.626.9.517,1.363C418.376,428.721,418.267,427.25,418.514,426.888Z" fill="#218b89"/>
        <path id="Path_3073" data-name="Path 3073" d="M440.22,431.92c.673-1.226.787-2.734,1.646-3.857l.333.12c.152.869-.377,1.662-.47,2.513a16.542,16.542,0,0,1,1.32-2.393l.69.127a5.929,5.929,0,0,1-.9,2.756c-.31.455-.82.264-1.2.046a7.38,7.38,0,0,0-1.294,2.861c.477-.812.694-1.943,1.7-2.219a15,15,0,0,1,2.173.888c.859.482,2.056.428,2.613,1.388,1.22-.005,2.256.756,3.392,1.111a.868.868,0,0,1,.955-.223c.207.685-.068,1.7-.894,1.674-1.213-.3-2.291-.994-3.47-1.4a35.855,35.855,0,0,0-4.682-1.919c-.427.651-.562,1.459-.943,2.137-.671.536-2.206-.2-1.8-1.165A16.659,16.659,0,0,1,440.22,431.92Z" fill="#218b89"/>
        <path id="Path_3074" data-name="Path 3074" d="M332.034,445.652a8.539,8.539,0,0,1,1.6-1.25l.435.186a5.388,5.388,0,0,1-1.725,1.686c-1.1,1-1.991,2.359-3.437,2.842-.014-.142-.044-.429-.058-.573A14.56,14.56,0,0,1,332.034,445.652Z" fill="#218b89"/>
        <path id="Path_3075" data-name="Path 3075" d="M327.752,449.272c.2-.369,1.046-.387.813.208a7.371,7.371,0,0,0-.967,1.043,32.3,32.3,0,0,0,2.76,3.534c.645-.893,1.87.5,1.264,1.238-.333.46-.9,1.072-1.5.7-.8-.739-1.425-1.669-2.168-2.474-.622-.769-1.6-1.434-1.63-2.536C326.523,450.227,327.272,449.825,327.752,449.272Z" fill="#218b89"/>
        <path id="Path_3076" data-name="Path 3076" d="M439.47,453.21c.5-.348.939-.981,1.6-.884.023.414.091.9-.3,1.168C440.465,453.991,439.144,454.064,439.47,453.21Z" fill="#218b89"/>
        <g id="Group_900" data-name="Group 900">
          <path id="Path_3077" data-name="Path 3077" d="M424.314,454.784c-.319-.389-.219-1.178.331-1.266a13.684,13.684,0,0,0,2.051,1.829c-.17-.377-.356-1.05.284-.967a17.178,17.178,0,0,1,2.673,3.071c.447,1.165,1.812,1.655,2.068,2.923a1.8,1.8,0,0,1-1.115-.145c.221.333.43.683.626,1.04.261-.218.489-.6.873-.521a1.9,1.9,0,0,1,.75,1.248c-.249.84-1.476,1.615-2.107.727C428.566,460.109,426.526,457.368,424.314,454.784Zm3.358,1.639a5.792,5.792,0,0,0,1.166,1.395C428.466,457.336,428.082,456.866,427.672,456.423Zm1.436,1.721c-.079.323.042.45.368.382C429.551,458.19,429.427,458.063,429.108,458.144Z" fill="#218b89"/>
          <path id="Path_3078" data-name="Path 3078" d="M427.041,455.721" fill="#218b89"/>
          <path id="Path_3079" data-name="Path 3079" d="M429.84,459.135" fill="#218b89"/>
        </g>
        <g id="Group_901" data-name="Group 901">
          <path id="Path_3080" data-name="Path 3080" d="M419.78,459.074c-.016-.379-.179-1.118.408-.981a5.109,5.109,0,0,1,.9,1.965.854.854,0,0,1,.947.269,35.063,35.063,0,0,1,2.646,3.02c.167-.2.328-.421.489-.631.3.017.6.115.53.494-.244.144-.479.3-.712.465.917.154.985,1.3,1.76,1.667.182-.091.548-.267.729-.358.459.184.955.639.78,1.217a1.434,1.434,0,0,1-1.5.768,7.532,7.532,0,0,1-1.55-1.363c-.792-.913-1.724-1.674-2.522-2.575q.411,3.143.568,6.315c-.161.445-.778.477-1.139.3a29.022,29.022,0,0,1-4.934-3.211c.589,1.691,1.239,3.368,1.677,5.113.442,1.177-1.591,2.029-2.015.839-.9-2.817-1.786-5.651-2.854-8.409-.168-.668-.61-1.3-.482-2.019.109-.017.33-.046.44-.061a11.432,11.432,0,0,0,1.2,1.762,2.068,2.068,0,0,1,1.027.394,34.868,34.868,0,0,0,3.467,2.274,3.354,3.354,0,0,0,2.282,1.067c-.03-.4-.063-.806-.1-1.2l-.421.455a3.833,3.833,0,0,1-.869-1.914C420.258,462.848,420.043,460.956,419.78,459.074Zm1.458,2.3a1.147,1.147,0,0,0,.256,1.036C421.86,462.275,421.65,461.318,421.238,461.379Z" fill="#218b89"/>
        </g>
        <path id="Path_3081" data-name="Path 3081" d="M425.8,463.452a2.146,2.146,0,0,1,1.092.583c-.116.21-.23.421-.347.634C426.168,464.446,425.429,464,425.8,463.452Z" fill="#218b89"/>
        <path id="Path_3082" data-name="Path 3082" d="M356.284,464.789a.652.652,0,0,1,.878-.106c-.019.468-.394.764-.678,1.07-.573.533-1.125,1.087-1.7,1.623-.317.269-.669.663-1.111.45-.158-.406.2-.663.426-.928C354.814,466.176,355.555,465.486,356.284,464.789Z" fill="#218b89"/>
        <g id="Group_902" data-name="Group 902">
          <path id="Path_3083" data-name="Path 3083" d="M365.491,467.383a2.615,2.615,0,0,1,.472-1.16c.529.1.573.717.5,1.175-.356,2.07-1.01,4.065-1.557,6.084.44-.592.337-1.875,1.3-1.772.682.049.913.778,1.213,1.3.54.9.584,2.007,1.085,2.935-.177-1.172-.775-2.23-.882-3.412.17-.629.947-.338,1.4-.528a2.724,2.724,0,0,0,1.837-2.9c.112-.433-.4-1.3.226-1.375a2.155,2.155,0,0,1,.9,1.6,6.254,6.254,0,0,1-.6,3.463,1.894,1.894,0,0,1-2.431.977c.471,1.409,1.022,2.785,1.525,4.18a1.612,1.612,0,0,1-.067,1.449,1.752,1.752,0,0,1-1.942-.436c-.8-1.542-1.167-3.323-2.135-4.772-.459,1.111-.578,2.349-1.076,3.443-.482.627-1.372.26-1.87-.156-.58-.747-.026-1.689.065-2.512C364.089,472.425,364.841,469.918,365.491,467.383Zm-.743,6.559a6.961,6.961,0,0,0-.55,2.007C364.832,475.567,364.785,474.613,364.748,473.942Zm4.047,2.567c-.151.247.1.764.4.654C369.321,476.913,369.088,476.4,368.8,476.509Z" fill="#218b89"/>
        </g>
        <g id="Group_903" data-name="Group 903">
          <path id="Path_3084" data-name="Path 3084" d="M376.5,472.6a27.982,27.982,0,0,1,1.83-3.128c.61-.154.536.612.326.977-.549,1.2-1.269,2.31-1.742,3.546a17.639,17.639,0,0,0,1.728-3.118c.31-.46.794-.145,1.046.193-.11-.5-.3-1.182.265-1.478a15.074,15.074,0,0,1,1.537,3.669c.754,2.376,1.746,4.674,2.375,7.1-.049,1.01-1.392.849-1.993.472-.622-.7-.636-1.76-1.185-2.5a18.146,18.146,0,0,0-3.963-.362c-.655.58-.883,1.515-1.453,2.175a1.6,1.6,0,0,1-2-.335,1.7,1.7,0,0,1,.391-1.907C374.532,476.088,375.59,474.385,376.5,472.6Zm4.338,2.144c-.284-1.187-.729-2.32-1.057-3.493C379.772,472.488,380.54,473.558,380.838,474.74Zm-3.688.68c-.375.284-.692-.061-.871-.387-.242.473-.482.945-.722,1.42.4-.318.843-.715,1.385-.516a31.845,31.845,0,0,0,4.52.425c-.135-.288-.261-.56-.389-.844l-.44.22c-1-.284-1.083-1.493-1.611-2.251C378.5,474.226,378.062,475.153,377.15,475.42Zm-2.958,3.006a2.08,2.08,0,0,0,1.134-1.528C374.961,477.417,374.579,477.924,374.192,478.426Zm7.938,0c-.153.287.194.818.508.676C382.785,478.81,382.44,478.313,382.13,478.43Z" fill="#218b89"/>
        </g>
      </g>
      <g id="Group_905" data-name="Group 905">
        <path id="Path_3085" data-name="Path 3085" d="M400.105,330.784l0,0a1.388,1.388,0,0,1-.267.118l-.38.054a.951.951,0,0,1-.143-.014c-.42,1.411-.866,2.816-1.189,4.252-.177,1.043.58,1.841.873,2.754-.054,1.564-.5,3.076-.589,4.635a12.514,12.514,0,0,0-.359,3.177.619.619,0,0,0,.841-.519,47.84,47.84,0,0,0,.691-5.132,21.94,21.94,0,0,0,.475-4.1c-.361-.443-.98-.871-.719-1.556C399.481,333.207,400.415,332.045,400.105,330.784Z" fill="#218b89"/>
        <path id="Path_3086" data-name="Path 3086" d="M353.282,346.65a.316.316,0,1,1,.333.536C353.282,347.717,352.747,346.892,353.282,346.65Z" fill="#218b89"/>
        <path id="Path_3087" data-name="Path 3087" d="M379.827,347.384l.308-.205c.64.144.046,1.214-.412,1C379.227,348.143,379.588,347.531,379.827,347.384Z" fill="#218b89"/>
        <path id="Path_3088" data-name="Path 3088" d="M438.753,393.1c.529-.5,1.006.362.464.7C438.73,394.025,438.676,393.471,438.753,393.1Z" fill="#218b89"/>
        <path id="Path_3089" data-name="Path 3089" d="M348.942,425.567a1.51,1.51,0,0,1,.542-.568c.534.11.189.636.08.959C349.34,425.868,348.953,425.924,348.942,425.567Z" fill="#218b89"/>
        <path id="Path_3090" data-name="Path 3090" d="M409.968,427.985a10.042,10.042,0,0,1,2.168-1.833c.081.075.249.23.333.3a28.572,28.572,0,0,1-2.3,2.235C410.012,428.506,409.647,428.207,409.968,427.985Z" fill="#218b89"/>
        <path id="Path_3091" data-name="Path 3091" d="M408.52,429c.291.176.491.683.069.837-.279.3-.556.012-.666-.262C408.119,429.382,408.317,429.189,408.52,429Z" fill="#218b89"/>
        <path id="Path_3092" data-name="Path 3092" d="M327.2,439.419c.391-.355.943.4.351.575C327.121,440.388,326.718,439.673,327.2,439.419Z" fill="#218b89"/>
        <path id="Path_3093" data-name="Path 3093" d="M441.559,443.949c.377-.683.58-1.669,1.383-1.931.072.1.217.294.289.389a17.63,17.63,0,0,1-1.132,1.765C441.964,444.115,441.694,444.005,441.559,443.949Z" fill="#218b89"/>
        <path id="Path_3094" data-name="Path 3094" d="M435.125,454.155c.438-.128,1.106.761.431.922C435.265,454.889,434.776,454.566,435.125,454.155Z" fill="#218b89"/>
        <path id="Path_3095" data-name="Path 3095" d="M405,465.271c.242-.372.8.085.526.428C405.269,466.056,404.722,465.606,405,465.271Z" fill="#218b89"/>
      </g>
      <g id="Group_911" data-name="Group 911">
        <path id="Path_3096" data-name="Path 3096" d="M406.522,334.768c.188-.017.568-.049.756-.064.168,1.129-.507,2.137-.67,3.226a94.3,94.3,0,0,1-2.336,10.367,2.416,2.416,0,0,1-1.015,1.378c-.535.191-1.5.076-1.423-.719.152-2.171.855-4.249,1.095-6.41a34.211,34.211,0,0,1,1.646-6.341,5.3,5.3,0,0,1,.552-1.055c.114.078.345.23.461.306-.154.68-.449,1.309-.654,1.968-.815,3.48-1.158,7.06-2.035,10.523.135-.112.319-.181.4-.35a43.356,43.356,0,0,0,1.614-5.966c.489-1.787.7-3.642,1.234-5.417C406.328,335.752,406.1,335.094,406.522,334.768Z" fill="#218b89"/>
        <path id="Path_3097" data-name="Path 3097" d="M401.5,335.735a1.73,1.73,0,0,1,1.378-.37c.322,1.415-1.057,2.12-1.681,3.123a31.983,31.983,0,0,0-1.041,6.684,4.758,4.758,0,0,1-2.508,3.762,10.59,10.59,0,0,1-7.677-2.541c-2.342,1.452-5.146,1.28-7.724.827-.256.48-.072,1.094-.314,1.591a8.207,8.207,0,0,1-4.3,4.251c-1.975.984-4.31.431-6.162-.609a1.112,1.112,0,0,1-.666-1.415c.578-.191.978.382,1.486.549a6.329,6.329,0,0,0,3.961.428,7.1,7.1,0,0,0,5.013-4.6c.063-.587.04-1.517.8-1.566a28.222,28.222,0,0,0,4.609.3c1.164-.086,2.154-.8,3.26-1.106a1.114,1.114,0,0,1,1.173.48,6.845,6.845,0,0,0,3.26,1.7,6.368,6.368,0,0,0,3.055.337c1.658-.993,2.056-3.135,2.163-4.978.352-2.085.641-4.187,1.158-6.233A1.781,1.781,0,0,0,401.5,335.735Z" fill="#218b89"/>
        <path id="Path_3098" data-name="Path 3098" d="M386.168,340.341c.2-.553.21-1.689,1.043-1.432a4.954,4.954,0,0,1-.13,1.782,3.666,3.666,0,0,1,3.006,1.26c.552.605.119,1.919-.731,1.887a8.887,8.887,0,0,0-.273-1.077c-.724-.658-1.73-.477-2.6-.631C385.712,341.9,386,340.928,386.168,340.341Z" fill="#218b89"/>
        <path id="Path_3099" data-name="Path 3099" d="M350.847,340.167c.826.259,1.613-.272,2.444-.159-.1.69.1,1.867-.817,1.975a3.932,3.932,0,0,1-1.79-.467C350.381,341.168,350.264,340.26,350.847,340.167Z" fill="#218b89"/>
        <path id="Path_3100" data-name="Path 3100" d="M369.258,341.574c.552-.061.517.607.7.984a3.057,3.057,0,0,1,1.9,2.222c-.161.341-.226.987-.743.842a9.426,9.426,0,0,1-.531-1.035,10.694,10.694,0,0,0-1.453-.935A1.778,1.778,0,0,1,369.258,341.574Z" fill="#218b89"/>
        <path id="Path_3101" data-name="Path 3101" d="M372.2,345.681c.379-.536-.158-1.53.514-1.816.927,1.03.529,2.761-.319,3.73a5.371,5.371,0,0,1-3.625,1.764,10.923,10.923,0,0,1-2.554-.264c-1.542,1.048-2.972,2.479-4.862,2.766a4.3,4.3,0,0,1-3.447-1.2,7.5,7.5,0,0,1-5.209,2.567,1.9,1.9,0,0,1-1.911-1.86,5.072,5.072,0,0,1,.826-2.6c.261-.086.517-.463.8-.269.186.447-.212.788-.352,1.174a6.086,6.086,0,0,0-.179,1.535c.549.746,1.483.477,2.242.36a6.247,6.247,0,0,0,3.351-2.037c.445-.411,1.059-.1,1.43.265a3.241,3.241,0,0,0,3.241.457c1.39-.538,2.417-1.723,3.714-2.437.4-.223.854.044,1.267.107A4.381,4.381,0,0,0,372.2,345.681Z" fill="#218b89"/>
        <path id="Path_3102" data-name="Path 3102" d="M407.842,345.463c.207-.262.638-.342.773.044a8.372,8.372,0,0,0-.785,2.69,9.762,9.762,0,0,0,2.217,4.831,24.852,24.852,0,0,0,6.49,5.9,21.255,21.255,0,0,0,4.95,3.077,10.989,10.989,0,0,1,2.024.685c1.113.088,2.431.166,3.283-.737,1.523-1.351,1.609-3.578,2.093-5.462.01-.277.3-.649.575-.409a2.763,2.763,0,0,1,.142,1.625c-.309,1.87-.607,3.965-2.091,5.245a4.086,4.086,0,0,1-4.251,1.065,18.962,18.962,0,0,1-7.678-4.088,23.123,23.123,0,0,1-8.494-9.376A5.412,5.412,0,0,1,407.842,345.463Z" fill="#218b89"/>
        <path id="Path_3103" data-name="Path 3103" d="M339.229,345.97l.452-.059a21.9,21.9,0,0,0,1.1,2.1c2.687,2.59,5.127,5.443,7.744,8.109.871-.394,1.342.9.962,1.573-.505.426-1.122.025-1.495-.386-2.517-2.5-4.918-5.133-7.433-7.639A4.08,4.08,0,0,1,339.229,345.97Z" fill="#218b89"/>
        <path id="Path_3104" data-name="Path 3104" d="M372.646,348.322c-.018-.482.412-.531.764-.47.023.453.028.9.072,1.358.277.079.561.115.845.169.261-.428.42-1.067,1.034-.986.075.7.2,1.791-.577,2.1a4.037,4.037,0,0,1-1.861-.277C372.339,349.783,372.579,348.943,372.646,348.322Z" fill="#218b89"/>
        <path id="Path_3105" data-name="Path 3105" d="M332.456,349.685c.9-.321,1.01.71,1.327,1.3,1,1.452,3.043.96,4.252,2.11.461.583.8,1.261,1.267,1.838,1.346,1.772,3.078,3.192,4.326,5.044.5.8-.191,1.545-.526,2.222-.834-.176.149-1.079-.347-1.585-1.5-1.9-3.386-3.454-4.822-5.424-.354-.45-.645-1.091-1.281-1.118a4.354,4.354,0,0,1-4.2-4.391Z" fill="#218b89"/>
        <path id="Path_3106" data-name="Path 3106" d="M366.3,353.929c-.817-.541-.512-1.858-.074-2.572.431.359.347.971.461,1.473.321.005.645.005.969.005.074-.228.151-.458.228-.685.167-.01.505-.03.673-.042.375.573.063,1.3-.152,1.87C367.824,354.5,366.955,354.105,366.3,353.929Z" fill="#218b89"/>
        <path id="Path_3107" data-name="Path 3107" d="M363.327,353.645c.247-.029.494-.047.743-.056.049.391.1.783.145,1.177.761.232,1.169-.548,1.8-.788a3.042,3.042,0,0,1-.137,2.031c-.422.372-1.027.137-1.521.115-.475-.037-1.12-.193-1.2-.786C363.209,354.773,363.279,354.21,363.327,353.645Z" fill="#218b89"/>
        <path id="Path_3108" data-name="Path 3108" d="M425.639,356.849a.453.453,0,0,1,.736.411,5.709,5.709,0,0,1-.54,2.9c-.11,0-.326-.017-.434-.024a9.521,9.521,0,0,1,.024-1.909A2.684,2.684,0,0,1,425.639,356.849Z" fill="#218b89"/>
        <path id="Path_3109" data-name="Path 3109" d="M332.945,358.442c.349-.262.768-.522,1.192-.269a12.9,12.9,0,0,1,.126,1.769c.014.866-1.041.622-1.584.764-1.29.23-1.52-1.6-1.4-2.573.291-.007.582-.012.876-.012.079.3.158.605.23.908l1.064.223C333.282,358.98,333.115,358.711,332.945,358.442Z" fill="#218b89"/>
        <path id="Path_3110" data-name="Path 3110" d="M349.075,359.9c.633.169,1.057,1.145.479,1.62-1.19.771-2.643.394-3.958.487-.613,1.016-.717,2.381-1.728,3.094a5.568,5.568,0,0,1-3,1.566,9.565,9.565,0,0,1-2.47,5.4,4.8,4.8,0,0,1-3.16,1.623,7.591,7.591,0,0,1-2.582-.56,16.949,16.949,0,0,1,.782,3.487,11.992,11.992,0,0,1-.9,5.453,3.631,3.631,0,0,1-3.351,1.931c-.6.01-.685-.607-.531-1.079a4.141,4.141,0,0,0,2.836-1.7c.913-1.6.894-3.566.866-5.372.005-1.187-.8-2.2-.738-3.392a.768.768,0,0,1,1.018-.658c1.162.308,2.428.788,3.59.2a2.911,2.911,0,0,0,1.428-1.172A6.8,6.8,0,0,0,339.444,368c.358-.747.251-1.623.554-2.381.577-.434,1.35-.419,1.972-.774,1.495-.727,2.236-2.352,2.8-3.877.943-.653,2.212-.2,3.288-.345C348.546,360.715,348.8,360.221,349.075,359.9Z" fill="#218b89"/>
        <path id="Path_3111" data-name="Path 3111" d="M329.4,361.161c.314-.808,1.3-.25,1.136.521.5-.323.978-1.084,1.644-.717a6.711,6.711,0,0,1,.152,1.914,2.433,2.433,0,0,1-1.987.553C329.431,363.155,329.489,361.951,329.4,361.161Z" fill="#218b89"/>
        <path id="Path_3112" data-name="Path 3112" d="M421.576,366.342l.519-.012c.668,1.272,1.171,2.64,1.916,3.872a7.865,7.865,0,0,0,4.958,3.118,7.281,7.281,0,0,0,5.821-1.249c.815-.864,1.013-2.131,1.746-3.064.308.225.62.573.443,1-.338,1.253-.759,2.675-1.9,3.37-1.977,1.081-4.254,1.97-6.5,1.326a11.532,11.532,0,0,1-4.3-2.107,13.884,13.884,0,0,1-2.541-4.337A2.59,2.59,0,0,1,421.576,366.342Z" fill="#218b89"/>
        <path id="Path_3113" data-name="Path 3113" d="M378.016,367.177c.086-.321.137-.732.524-.8.431.277.428.906.34,1.363-.436,1.6-.974,3.16-1.358,4.768a18.643,18.643,0,0,1,2.722,4.3,45.794,45.794,0,0,1,3.589,10.43,59.674,59.674,0,0,1,1.22,7.7,63.694,63.694,0,0,1-.366,11.535,20.007,20.007,0,0,0,2.86-8.072,22.924,22.924,0,0,0,.575-6.642,59.655,59.655,0,0,0-3.982-18.3c-.8-1.652-1.32-3.456-2.249-5.029.53-.485-.152-.722-.441-.886-.088-.546.448-.59.75-.267,0,.174-.011.519-.016.692l.305.03a56.6,56.6,0,0,1,4.7,11.789,52.019,52.019,0,0,1,2.023,11.711,28.355,28.355,0,0,1-3.5,15.842c-.379.59-.8,1.385-1.574,1.373-.722-.064-.626-.979-.587-1.525a61.545,61.545,0,0,0,.461-7.592,46.877,46.877,0,0,0-6.543-24.839c-.372-.682-1.332-1.186-1.013-2.1C376.91,370.816,377.529,369.015,378.016,367.177Z" fill="#218b89"/>
        <path id="Path_3114" data-name="Path 3114" d="M433.966,370.216c.049-.457.032-1.326.689-1.241.591-.161.312.656.3.965a4.383,4.383,0,0,1-.545,1.593C433.773,371.455,433.97,370.686,433.966,370.216Z" fill="#218b89"/>
        <path id="Path_3115" data-name="Path 3115" d="M328.877,374.546a2.069,2.069,0,0,1,2.158-.639c.557.438.527,1.287.576,1.948a9.921,9.921,0,0,1-.685,4.31c-.121.352-.5.333-.789.333-.163-1.006.365-1.939.3-2.94a15.542,15.542,0,0,0,0-2.354,7.318,7.318,0,0,0-2.391,2.386c-.589.906,0,2.156-.615,3.033-.477.45-1.106-.057-1.462-.436a6.1,6.1,0,0,1-1.255-4.08c-.044-.749.54-1.63,1.334-1.336a5.36,5.36,0,0,0,.7,4.261C326.383,377.184,327.65,375.664,328.877,374.546Z" fill="#218b89"/>
        <path id="Path_3116" data-name="Path 3116" d="M433.591,381.132a3.15,3.15,0,0,1,.64-4.139c.561-.242.536.624.308.925a2.654,2.654,0,0,0,.307,2.9c.7,1.018,1.4,2.223,2.622,2.6.447.2,1.15.176,1.306.768.091,1.114-.454,2.416.349,3.366a1.426,1.426,0,0,0,2.441.188,7.657,7.657,0,0,0,1.562-3.328c-.016-.539.79-.49.836-.005.359,1.233-.4,2.369-.971,3.38-.654.859-1.388,1.882-2.536,1.931-1.448.215-2.6-1.212-2.785-2.6a9.172,9.172,0,0,1,.112-2.257C435.7,384.857,434.441,382.869,433.591,381.132Z" fill="#218b89"/>
        <path id="Path_3117" data-name="Path 3117" d="M318.457,382.182c.868-.416,1.262.89,2.023,1.125a7.462,7.462,0,0,1,2.881-.369c1.42.046,2.985-.34,4.277.455a6.216,6.216,0,0,1,.831,6.6c.5.01,1.176.139,1.428-.451a10.094,10.094,0,0,0-.014-4.867c.887-.086,1.064,1.069,1.278,1.74a8.691,8.691,0,0,1-.321,4.131,2.309,2.309,0,0,1-3.411.379c-.671-.719.377-1.463.433-2.232a5.054,5.054,0,0,0-1.211-4.327,23.454,23.454,0,0,0-5.64.446,2.71,2.71,0,0,1-2.422-1.386A1.151,1.151,0,0,1,318.457,382.182Z" fill="#218b89"/>
        <path id="Path_3118" data-name="Path 3118" d="M439.121,387.074c-.615-1-.391-2.846.929-3.023.832-.029,2.035.23,2.028,1.337.033.641-.33,1.879-1.089,1.671-.012-.565.037-1.128.023-1.691-.352-.039-.7-.073-1.05-.1a5.128,5.128,0,0,0-.065,1.841A.416.416,0,0,1,439.121,387.074Z" fill="#218b89"/>
        <path id="Path_3119" data-name="Path 3119" d="M314.314,391.56a1.115,1.115,0,0,1,1.2-.4c.07.355.139.71.212,1.067a6.411,6.411,0,0,1,1.914-.511c.295.959-.662,1.515-1.339,1.882a1.177,1.177,0,0,1-1.439-.482C314.526,392.7,313.907,392.123,314.314,391.56Z" fill="#218b89"/>
        <path id="Path_3120" data-name="Path 3120" d="M320.371,391.318c.712-.174.461.984.7,1.4.832,1.052,1.388,2.445,2.634,3.052a3.078,3.078,0,0,0,2.643.073c.947-.8.9-2.22,1.015-3.372.391-.336.726.23.859.56a4.484,4.484,0,0,1-1.006,3.979c-1.476,1.063-3.525.568-4.89-.472a7.549,7.549,0,0,1-2.477-3.042C319.812,392.759,319.574,391.7,320.371,391.318Z" fill="#218b89"/>
        <path id="Path_3121" data-name="Path 3121" d="M322.192,392.316a2.883,2.883,0,0,1,4.114.037,2.489,2.489,0,0,1,0,2.538,1.3,1.3,0,0,1-.824.712c-.468-.139-.158-.67-.079-.979.137-.509.328-1.241-.194-1.571a1.782,1.782,0,0,0-2.575.771A1.049,1.049,0,0,1,322.192,392.316Z" fill="#218b89"/>
        <path id="Path_3122" data-name="Path 3122" d="M436.732,392.789a.449.449,0,0,1,.8-.069,9.2,9.2,0,0,0,1.12,4.427,2.661,2.661,0,0,0,2.294.216c1.069-.673,1.982-1.721,3.269-1.939a29.3,29.3,0,0,0,3.742.338c.866.032,2.04.169,2.285,1.231a2.183,2.183,0,0,1,1.7-.494c.3-.979.638-2.35,1.816-2.445.673-.044,1.4-.751,2.026-.3.363.8-.855,1-1.344.678a4.192,4.192,0,0,0-1.476,2.873c-.182.571-.85.456-1.29.529-.687-.015-1.223.556-1.893.585-.734-.1-.561-1.3-1.334-1.29a22.545,22.545,0,0,1-4-.318c-.683-.2-1.162.453-1.679.8a4.725,4.725,0,0,1-4.376,1.023c-1.089-.368-1.278-1.726-1.557-2.72C436.723,394.888,436.245,393.775,436.732,392.789Z" fill="#218b89"/>
        <path id="Path_3123" data-name="Path 3123" d="M313.718,394.979a3.484,3.484,0,0,1,1.276-.886c.866-.117.207,1,.177,1.461.6.081,1.015-.328,1.472-.651.47.086.959.729.524,1.163a4.69,4.69,0,0,1-1.588,1.2c-.541.22-.927-.336-1.244-.7C314,396.117,313.406,395.608,313.718,394.979Z" fill="#218b89"/>
        <path id="Path_3124" data-name="Path 3124" d="M320.895,405.41c.174-.269.5-.881.831-.414a1.43,1.43,0,0,1,.047,1.5,6,6,0,0,1-2.636.536c-1.619.168-3.256.21-4.86.5a2.01,2.01,0,0,0-1.437,1.138,7.008,7.008,0,0,0,.089,2.785c-.263.076-.648.294-.759-.122-.785-1.545-.711-3.789.7-4.912.878-.693,2.014-.509,3.034-.678C317.56,405.5,319.234,405.591,320.895,405.41Z" fill="#218b89"/>
        <path id="Path_3125" data-name="Path 3125" d="M311.55,406.266c.294-.447.855-.071.58.394a6.048,6.048,0,0,0,.438,6.031c1.045,1.165,2.675.717,4.017.656.854-.2,1.737-.154,2.591-.3.727-.313,1.523.208,2.25-.1.279-.282.465-.876.943-.59.23.636.419,1.657-.434,1.853-1.627.364-3.315.3-4.964.524-1.472.11-3.06.4-4.443-.3a4.306,4.306,0,0,1-2.088-3.828C310.328,409.108,310.328,407.287,311.55,406.266Z" fill="#218b89"/>
        <path id="Path_3126" data-name="Path 3126" d="M445.5,410.98c.244-.333.575-.979,1.057-.634-.347,1.192-.96,2.5-.291,3.7-.1-.413-.194-.827-.259-1.243a5.582,5.582,0,0,1,1.444-2.58c.561-.1.745.693.617,1.126-.3.558-.936.977-.889,1.686.034.605.456,1.479-.424,1.594a6.446,6.446,0,0,0,2.133.893c1.234-.639,1.762-2.117,2.547-3.221a3.788,3.788,0,0,1,2.8-1.072c.67-.051,1.094.634,1.3,1.217a3.974,3.974,0,0,1-1.076,3.781,3.286,3.286,0,0,0,1.318-3.444,5.028,5.028,0,0,1-.119-1.4c.466-.208.727.318.922.67a5.066,5.066,0,0,1-.314,4.342,2.266,2.266,0,0,1-2.254,1.141c-.845-.2-.9-1.9.144-1.7a3.98,3.98,0,0,0,.268-2.989,1.089,1.089,0,0,0-1.835-.049c-.838,1.148-1.388,2.563-2.482,3.493a3.3,3.3,0,0,1-4.231-.612A4.292,4.292,0,0,1,445.5,410.98Z" fill="#218b89"/>
        <path id="Path_3127" data-name="Path 3127" d="M391.149,413.3l.188-.132.5.1a10.874,10.874,0,0,0-.463,2.5c.023.465-.226,1.016-.734,1.011-.537-.269-.349-.979-.33-1.473A5.022,5.022,0,0,1,391.149,413.3Z" fill="#218b89"/>
        <path id="Path_3128" data-name="Path 3128" d="M410.164,415.383c.1-.529.221-1.848,1.019-1.351a13.521,13.521,0,0,1-.076,3.142,14.091,14.091,0,0,1,3.586,3.42,4.031,4.031,0,0,1,.761,2.476c-.093.95-1.039,1.359-1.495,2.1-.14-.012-.419-.036-.559-.051.217-.747.792-1.287,1.05-2.017-.677-2.043-2.417-3.411-4-4.662C409.658,417.657,410.138,416.367,410.164,415.383Z" fill="#218b89"/>
        <path id="Path_3129" data-name="Path 3129" d="M395.056,415.248c-.3-.227-.282-.883.207-.7a7.6,7.6,0,0,1,1.877,2.154c1.278,2.572,2.692,5.328,2.417,8.334-.079,1.076-.47,2.491-1.688,2.616-2.638.323-5.27-.257-7.878-.578-1.054.355-2.079.81-3.157,1.084a60.859,60.859,0,0,1-12.227,1.112c-1.332-.052-2.643-.358-3.977-.392a20.865,20.865,0,0,1-3.048-.507,17.179,17.179,0,0,1-6.231-2.014c.149.734.7,1.613.179,2.32-.384.593-1.167.375-1.67.093-2.345-1.25-4.948-2.212-6.783-4.275-.354.807-.808,1.564-1.2,2.352a7.141,7.141,0,0,1-3.651,3.272,17.627,17.627,0,0,1-4.378.871,20.21,20.21,0,0,1-3.488.1,5.212,5.212,0,0,1-3.165-.739.682.682,0,0,1,.128-1.136c.5-.213.89.36,1.379.387.945.135,1.886.333,2.838.379,1.57-.173,3.093-.643,4.657-.844a10.208,10.208,0,0,0,1.528-.387c.363-.543,1.036-.6,1.511-.989a10.143,10.143,0,0,0,2.371-3.159c.349-.529.419-1.319,1.068-1.557.417-.279.881,0,1.228.262a25.132,25.132,0,0,0,5.819,3.419,1.9,1.9,0,0,1,.887.717c-.224-.731-.722-1.652-.154-2.344a1.681,1.681,0,0,1,1.777-.013,24.159,24.159,0,0,0,6.3,1.77c1.146.357,2.364.12,3.528.345a25.7,25.7,0,0,0,4.86.281c1.709-.156,3.425-.225,5.139-.31.948-.137,1.872-.416,2.827-.507a18.279,18.279,0,0,0,3.886-1.15c1.309-.446,2.648.156,3.975.142a15.849,15.849,0,0,1,2.075.46,13.15,13.15,0,0,1,2.812-.071c.713-.2.7-1.126.746-1.743a17.583,17.583,0,0,0-3.321-9.053Z" fill="#218b89"/>
        <path id="Path_3130" data-name="Path 3130" d="M412.534,415.273c.417-.477.8.313,1.025.631a3.759,3.759,0,0,1,.985,1.175,28.858,28.858,0,0,1,2.4,5.007c.419,1.138-.2,2.264-.59,3.3a15.088,15.088,0,0,1-3.488,5.122c-1.453,1.567-3.288,2.991-5.439,3.106a20.331,20.331,0,0,1-10.856-3.076c-.477-.343-1-.94-.75-1.594a.538.538,0,0,1,.557-.093,14.754,14.754,0,0,0,5.207,2.546,11.661,11.661,0,0,0,5.15.6c1.553.2,2.911-.822,4.187-1.6.757-.406,1.125-1.27,1.819-1.76a15.067,15.067,0,0,0,2.654-4.253,3.321,3.321,0,0,0,.284-2.771c-.486-.94-.778-1.973-1.3-2.893a14.771,14.771,0,0,1-1.124-2.264C413.16,415.963,412.543,415.8,412.534,415.273Z" fill="#218b89"/>
        <path id="Path_3131" data-name="Path 3131" d="M422.041,416.687c.168-.621.338-1.891,1.216-1.485a16,16,0,0,1-.342,2.477,1.84,1.84,0,0,1,2.265.714c1.388,2.23,3.009,4.457,3.449,7.144.146.605-.38,1.709-1.032,1.092-.132-2.112-1.348-3.872-2.377-5.607a14.713,14.713,0,0,0-1.332-2.051c-.706-.5-.976,1.314-1.7.536C421.673,418.711,421.951,417.591,422.041,416.687Z" fill="#218b89"/>
        <path id="Path_3132" data-name="Path 3132" d="M357.562,415.892a.678.678,0,0,1,.892.441c.589,1.184.37,2.6.747,3.852a1.656,1.656,0,0,1,.059,1.292c-.413.228-.627-.308-.785-.6C357.727,419.34,357.814,417.561,357.562,415.892Z" fill="#218b89"/>
        <path id="Path_3133" data-name="Path 3133" d="M352.442,416.969c.267-.152.889-.494.973.015-.789,2.256-.193,4.99-1.8,6.923-.222.35-.867,1.058-1.141.394.219-.954.971-1.679,1.064-2.68A17.322,17.322,0,0,1,352.442,416.969Z" fill="#218b89"/>
        <path id="Path_3134" data-name="Path 3134" d="M353.515,418.6a5.152,5.152,0,0,1,2.426-1.331,1.194,1.194,0,0,1,1.349.558,8.007,8.007,0,0,1,.782,3.828c-.037.421-.461.834-.864.661a26.55,26.55,0,0,0-.813-3.505,3.567,3.567,0,0,0-1.986.888c-.17.338-.316.764-.757.752C352.928,420.163,353,419.057,353.515,418.6Z" fill="#218b89"/>
        <path id="Path_3135" data-name="Path 3135" d="M425.753,417.157l.561-.058a13.859,13.859,0,0,1,2.364,3.455,15.559,15.559,0,0,1,1.753,4.736c-.091,1.175.293,2.484-.31,3.554-1.1.993-2.612,1.174-3.93,1.7a17.411,17.411,0,0,1-3.847.884,12.1,12.1,0,0,1-3.244.384,6.113,6.113,0,0,1-1.117-.71,8.388,8.388,0,0,1-.669-4.109.328.328,0,0,1,.638-.017c.485.9.485,1.982.941,2.9.266.35.755.217,1.125.22a32.2,32.2,0,0,0,8.574-2.11,1.225,1.225,0,0,0,.628-.585,11.153,11.153,0,0,0-1.9-7.376C426.859,419.025,426.021,418.249,425.753,417.157Z" fill="#218b89"/>
        <path id="Path_3136" data-name="Path 3136" d="M322.1,417.63c.249-.186.64-.321.882-.042.28.788-.375,1.434-.682,2.085-1.036,2.107-2.14,4.176-3.241,6.244a4.5,4.5,0,0,1-1.3,1.529.558.558,0,0,1-.84-.5q1.659-3.047,3.341-6.074C320.9,419.81,321.139,418.462,322.1,417.63Z" fill="#218b89"/>
        <path id="Path_3137" data-name="Path 3137" d="M393.5,417.786c.673-.465,1.36.174,1.814.664.615.739,1.192,1.515,1.779,2.281a1.683,1.683,0,0,1,.293.856,1.589,1.589,0,0,1,.5,1.5c-.031.384-.431.382-.7.377a19.952,19.952,0,0,0-2.538-3.772c.182,1.192.738,2.715-.27,3.662-.317.362-.9-.113-.7-.526a6.552,6.552,0,0,0-.27-3.334A1.815,1.815,0,0,1,393.5,417.786Z" fill="#218b89"/>
        <path id="Path_3138" data-name="Path 3138" d="M387.782,418.114c.244-.274.938-.2.6.274a5.54,5.54,0,0,0-1.4,3.97c-.009.71.4,1.439.131,2.134-.252.482-.985.441-.943-.2A5.815,5.815,0,0,1,387.782,418.114Z" fill="#218b89"/>
        <path id="Path_3139" data-name="Path 3139" d="M387.81,420.65a5.437,5.437,0,0,1,3.118-2.384c.819-.159,1.334.649,1.746,1.251a4.192,4.192,0,0,1,.934,2.834c-.017.523-.545.568-.92.629a5.785,5.785,0,0,0-1.539-3.246,4.878,4.878,0,0,0-2.587,2.348c-.107.374-.452.543-.727.758A1.9,1.9,0,0,1,387.81,420.65Z" fill="#218b89"/>
        <path id="Path_3140" data-name="Path 3140" d="M313.6,420.332a54.8,54.8,0,0,1,6.753-1.694.555.555,0,0,1,.538.808c-.261.474-.613.891-.862,1.375-1.225,2.484-2.631,4.868-3.767,7.4a47.388,47.388,0,0,0,5.215-1.26c.892-.174,1.675-.855,2.62-.659.675.137.7-.964,1.4-.805.135.553.5,1.314-.105,1.708a30.86,30.86,0,0,1-4.089,1.3c-2.035.538-4.024,1.275-6.087,1.689-.71-.04-.738-1.016-.335-1.464,1.264-2.912,2.92-5.612,4.266-8.478-1.425.544-2.922.842-4.368,1.322a6.183,6.183,0,0,1-1.889.433c-.908-.13-1.1-1.809-.226-2.112C313.085,419.754,313.171,420.576,313.6,420.332Z" fill="#218b89"/>
        <path id="Path_3141" data-name="Path 3141" d="M444.134,419.761a.391.391,0,0,1,.76-.071,29.847,29.847,0,0,1-.648,3.483,26.853,26.853,0,0,1,1.06-3.079.867.867,0,0,1,.906-.293,13.563,13.563,0,0,1-.531,2.924,1.8,1.8,0,0,1-1.032,1.53,10.845,10.845,0,0,0,4.483,1.336,16.042,16.042,0,0,0,4.105,1.16c.284-1.157.519-2.327.847-3.473.154-.563.513-1.221,1.179-1.059.023,1.813-.746,3.516-1.013,5.293a.827.827,0,0,1-1.188.686c-2.969-.742-5.917-1.579-8.869-2.394-.371-.166-.908-.291-1.016-.759A30.649,30.649,0,0,1,444.134,419.761Z" fill="#218b89"/>
        <path id="Path_3142" data-name="Path 3142" d="M448.475,420.716a.4.4,0,0,1,.661.413c-.186,1.161-.57,2.279-.717,3.449-.477.433-.789-.34-.736-.734A9.925,9.925,0,0,1,448.475,420.716Z" fill="#218b89"/>
        <path id="Path_3143" data-name="Path 3143" d="M449.63,420.953a.443.443,0,0,1,.785.409c-.168,1.109-.466,2.2-.743,3.289-.086.558-1.074.908-1.1.137A9.5,9.5,0,0,1,449.63,420.953Z" fill="#218b89"/>
        <path id="Path_3144" data-name="Path 3144" d="M327.2,431.017c.378-.441.8.247.874.629.055.8-.781,1.062-1.321,1.353-2.736,1.261-5.435,2.6-8.164,3.872a.855.855,0,0,1-1.241-.333c-.2-.531-.591-1.287-.016-1.708.456-.46.873.475,1.355.277a82.2,82.2,0,0,1,7.952-3.576C326.888,431.455,327.014,431.183,327.2,431.017Z" fill="#218b89"/>
        <path id="Path_3145" data-name="Path 3145" d="M328.048,436.325a.95.95,0,0,1,.664-1.265c.279.125.344.458.47.715.291.7.829,1.243,1.076,1.967a9.7,9.7,0,0,1,.137-.971c.317-.37.615.181.794.409a3.323,3.323,0,0,1,.477,1.333c-.284.605-.891,0-1.222-.222a1.02,1.02,0,0,1-1.174.538,1.734,1.734,0,0,1-1.068.742c-.312-.666.3-1.148.884-1.163A19.15,19.15,0,0,1,328.048,436.325Z" fill="#218b89"/>
        <path id="Path_3146" data-name="Path 3146" d="M324.306,442.38a57.271,57.271,0,0,1,6.024-3.522c1.134.245,1.25,1.694,2.012,2.411-.054-.714-.7-1.275-.559-2a.486.486,0,0,1,.724.392c.2.727.792,1.27.9,2.026a1.339,1.339,0,0,1-1.881.989,14.709,14.709,0,0,1-1.192-2.11c-2.56,1.466-5.086,3-7.624,4.5-.894.355-1.327-.7-1.467-1.429-.221-.786,1.174-1.518,1.3-.468A2.766,2.766,0,0,0,324.306,442.38Z" fill="#218b89"/>
        <g id="Group_906" data-name="Group 906">
          <path id="Path_3147" data-name="Path 3147" d="M436.525,439.7c.861-.4,1.288.793,1.96,1.14.042-.452.515-.443.839-.354.854.183,1.725.308,2.57.545l-.065.607a5.03,5.03,0,0,1-1.821-.073c.561.852,1.507,1.816,1.078,2.946.2.275.394.544.6.818.878-1.3,1.478-2.856,2.752-3.808a17.854,17.854,0,0,0,2.583.139c.505-.051.894-.624,1.434-.428.235.7-.454,1.679-1.192,1.51-.773-.157-1.563-.181-2.343-.277-.64,1.151-1.367,2.245-2.04,3.375a23.885,23.885,0,0,0,1.29,2.269c.461.884-.6,2.531-1.5,1.64-1.8-2.785-3.579-5.6-5.344-8.417C437.107,440.758,436.627,440.307,436.525,439.7Zm2.205,1.559c-.075.289.284.746.58.619C439.489,441.543,439.035,441.1,438.73,441.257Z" fill="#218b89"/>
        </g>
        <path id="Path_3148" data-name="Path 3148" d="M332.111,446.964a8.8,8.8,0,0,1,2.194-1.72,1.206,1.206,0,0,1,1.185.264,16.348,16.348,0,0,1,2.252,2.323c.335-.15.863-.345,1.08.11.6.979-1.085,2.406-1.753,1.321-.732-.91-1.544-1.742-2.289-2.638a6.264,6.264,0,0,1-2.084,1.466C332.237,448.022,331.683,447.415,332.111,446.964Z" fill="#218b89"/>
        <path id="Path_3149" data-name="Path 3149" d="M429.583,448.562c.124-.337.394-.966.834-.69.233.433-.254.659-.533.854.014.245.025.495.028.744a4.036,4.036,0,0,1,2.2-1.708,3.117,3.117,0,0,1,2.37.95c.48.467.3,1.209.308,1.816a4.179,4.179,0,0,0-.012-2.609c1.528-.044,2.026,2.692.717,3.429a1.145,1.145,0,0,1-1.436.227.66.66,0,0,1-.748.348c-.163-.62.5-1.043.419-1.66a1.08,1.08,0,0,0-1.627-1.013,4.084,4.084,0,0,0-.888.744,4.935,4.935,0,0,0,1.274,1.51l-.3.353a26.4,26.4,0,0,1-2.466-1.819,20.552,20.552,0,0,0,2.7,2.311,4.537,4.537,0,0,0,.627.729,1.624,1.624,0,0,1,1.6-.911,8.862,8.862,0,0,1,2.431.74c0,.139-.005.42-.007.56-.957.592-2.1-.25-3.09.318.622.176.778.9,1.239,1.29a5.1,5.1,0,0,1,1.078,1.211c.4-.1.924-.567,1.253-.068a1.24,1.24,0,0,1-1.013,1.872,4.555,4.555,0,0,1-1.274-.893c-1.278-1.175-2.6-2.3-3.849-3.507-.864-1.072-2.119-1.713-2.932-2.829a.785.785,0,0,1,.312-1.2A1.925,1.925,0,0,1,429.583,448.562Z" fill="#218b89"/>
        <path id="Path_3150" data-name="Path 3150" d="M330.588,448.318a1.064,1.064,0,0,1,1.53-.2,19.087,19.087,0,0,1,2.028,2.376c.371-.237.8-.448,1.123-.012,1.127.854-.578,2.922-1.533,1.833a19.925,19.925,0,0,0-2.354-2.641c-.712.842-1.679,1.353-2.456,2.11-.4-.2-.936-.522-.8-1.077C328.828,449.786,329.808,449.157,330.588,448.318Z" fill="#218b89"/>
        <g id="Group_907" data-name="Group 907">
          <path id="Path_3151" data-name="Path 3151" d="M336.929,455.42a17.47,17.47,0,0,1,3.176-3.373c.7.446-.142,1.183-.391,1.665.766-.206,1.145-1.356,2.028-1.114a7.846,7.846,0,0,1,3.316,3.04,14.677,14.677,0,0,1,.33,2.5c.245-1.366-.3-2.651-.577-3.933.1,0,.3,0,.4.005a5.071,5.071,0,0,1,1.355,2.4c.559,2.908-1.2,5.778-3.5,7.249a4.648,4.648,0,0,1-4.356.174,24.976,24.976,0,0,1-4.338-3.561,1.229,1.229,0,0,1-.254-1.6C334.908,457.593,336.191,456.749,336.929,455.42Zm2.375-1.508a40.958,40.958,0,0,1-2.666,3.209c-.422.663-.95,1.233-1.432,1.848a13.574,13.574,0,0,0,4.482,3.764,4.389,4.389,0,0,0,3.058-.659c.957-.526,1.338-1.634,1.956-2.493a8.7,8.7,0,0,1-2.017,1.874c-.291.191-.8.069-.68-.374,1.118-.952,2.284-2.35,2-3.98-.075-1.054-1.027-1.657-1.656-2.361-.284-.238-.749-.825-1.078-.333-.768.976-1.623,1.874-2.361,2.875a9.86,9.86,0,0,1-2.293,2.365c-.42.132-1.048-.284-.874-.783a11.408,11.408,0,0,1,1.891-2.436c.673-.634.918-1.769,1.914-1.955A5.853,5.853,0,0,1,339.3,453.912Zm5.533,4.734c-.117.359-.014.465.309.311C345.263,458.6,345.158,458.491,344.837,458.646Z" fill="#218b89"/>
        </g>
        <g id="Group_908" data-name="Group 908">
          <path id="Path_3152" data-name="Path 3152" d="M358.4,465.427a1.508,1.508,0,0,1,.619-1.507c.534.125.408.856.48,1.282.144,3.172.1,6.351.2,9.526.159.607.058,1.492-.694,1.544-.682-.074-1.55-.45-1.627-1.275a17.984,17.984,0,0,1-.166-2.5,28.265,28.265,0,0,0-3.332-1.344c-1.015.091-1.63,1.182-2.573,1.491-.861.063-2.13-.92-1.455-1.89.314-.6.85-.213,1.225.064,1.134-.254,1.562-1.877,2.8-1.787,1.52.713,2.932,1.738,4.62,1.99-.105-.438-.056-1.14-.7-.822a4.083,4.083,0,0,1-.536-2.729,4.5,4.5,0,0,1-2.226,1.419c-.452.2-1.174-.166-.939-.758a34.248,34.248,0,0,0,3.188-2.822.7.7,0,0,1,1.029-.179c.091,1.231.026,2.472.094,3.708A30.58,30.58,0,0,0,358.4,465.427Zm-.042,6.677c-.179.186-.219.79.105.8C358.64,472.718,358.687,472.106,358.356,472.1Z" fill="#218b89"/>
        </g>
        <g id="Group_909" data-name="Group 909">
          <path id="Path_3153" data-name="Path 3153" d="M409.307,464.434c.149-.194.3-.384.449-.575.817.2,1.269,1.911.2,2.109a14.619,14.619,0,0,1-3.225,1.1c.354.776,1.018,2.2-.2,2.492.1.2-.024.636.249.69a16.426,16.426,0,0,1,4-1.591,4.433,4.433,0,0,0,.664-.5,4.832,4.832,0,0,1,.952,1.434,4.114,4.114,0,0,1-1.681.962,7.458,7.458,0,0,1-2.459.724c.261.92,1.029,1.853.685,2.844-.515.546-.925-.186-1.057-.658.144.489.135,1.275.707,1.444,1.228-.066,2.287-.818,3.482-1.045.542-.064,1.019-.691,1.571-.407.275.446.44,1.31-.193,1.5-1.318.631-2.692,1.121-4.054,1.63-.559.176-1.339.47-1.753-.147-.347-.729-.643-1.485-.941-2.234-.869-2.641-1.928-5.208-2.855-7.827-.24-.448.133-.813.538-.881a5.238,5.238,0,0,1,1.132,1.691c-.121-.5-.354-1.322.3-1.515A32.976,32.976,0,0,1,409.307,464.434Z" fill="#218b89"/>
          <path id="Path_3154" data-name="Path 3154" d="M407.656,472.841" fill="#218b89"/>
        </g>
        <path id="Path_3155" data-name="Path 3155" d="M367.055,467.518c.345-.539.95-.118,1.374.056.734.406,1.875.492,2.04,1.539.156.752-.151,2.044-1.1,1.833,0-.448.007-.9-.009-1.338a3.218,3.218,0,0,0-1.507-.8c-.328.938-.528,2.509-1.781,2.428-.142-.367-.3-.749-.044-1.1C366.443,469.294,366.48,468.262,367.055,467.518Z" fill="#218b89"/>
        <g id="Group_910" data-name="Group 910">
          <path id="Path_3156" data-name="Path 3156" d="M386.21,469.094c.715-.453.845.7,1.087,1.15.287,1.463.291,2.986.655,4.437.333-.864,1.318-.475,1.986-.651a3.517,3.517,0,0,1,3.309,1.449c-.3-.4-.273-1.39.4-1.1a3.09,3.09,0,0,1,1.05,2.315c-.068,1.16.032,2.634-1.1,3.282-1.553.788-3.346.754-5.025.965-1.127.164-1.327-1.173-1.427-2.034-.317-2.692-.619-5.384-.931-8.079A3.277,3.277,0,0,1,386.21,469.094Zm1.66,6.179a14.722,14.722,0,0,1,.345,2.629c.023.482,0,1.2.605,1.29a5.106,5.106,0,0,0,4.222-1.219,2.4,2.4,0,0,0,.284-2.553,3.3,3.3,0,0,1-.673,2.594c-.263.314-.615.111-.9-.027a2.813,2.813,0,0,0,.328-1.784c-.733-.8-1.888-.47-2.82-.418a15.5,15.5,0,0,1,.161,2.376c-.123.495-.908.744-1.062.13-.13-1-.2-2.014-.377-3.01Z" fill="#218b89"/>
        </g>
        <path id="Path_3157" data-name="Path 3157" d="M392.013,469.615c.016-.739.894-.352,1.047.108a5.943,5.943,0,0,1,.59,3.514c-.5.7-1.542.441-2.278.573-.892-.561.061-1.814-.33-2.636a4.021,4.021,0,0,0-2.322-.157c.047.854.394,1.8-.063,2.6-.186.291-.826.274-.829-.152a16.265,16.265,0,0,1-.312-3.387.915.915,0,0,1,1.255-.544c.934.269,1.9.311,2.85.495.878.467.62,1.7.534,2.53A3.619,3.619,0,0,0,392.013,469.615Z" fill="#218b89"/>
      </g>
      <g id="Group_912" data-name="Group 912">
        <path id="Path_3158" data-name="Path 3158" d="M453.188,400.525a1.439,1.439,0,0,1,.957-.037,1.344,1.344,0,0,1-1.2,1.469,50.47,50.47,0,0,1-5.018.861c-2.391.211-4.785.778-7.188.423-.748-.11-1.612-.648-1.3-1.573a6.144,6.144,0,0,1,1.959.34,38.061,38.061,0,0,0,7.034-.524C450.007,401.093,451.658,401.12,453.188,400.525Z" fill="#218b89"/>
      </g>
      <g id="Group_913" data-name="Group 913">
        <path id="Path_3159" data-name="Path 3159" d="M438.73,441.257c.3-.157.759.286.58.619C439.014,442,438.655,441.546,438.73,441.257Z" fill="#218b89"/>
      </g>
      <g id="Group_914" data-name="Group 914">
        <path id="Path_3160" data-name="Path 3160" d="M427.041,455.721" fill="#218b89"/>
      </g>
      <g id="Group_915" data-name="Group 915">
        <path id="Path_3161" data-name="Path 3161" d="M344.837,458.646c.321-.155.426-.049.309.311C344.823,459.111,344.72,459.005,344.837,458.646Z" fill="#218b89"/>
        <path id="Path_3162" data-name="Path 3162" d="M382.13,478.43c.31-.117.655.38.508.676C382.324,479.248,381.977,478.717,382.13,478.43Z" fill="#218b89"/>
      </g>
      <g id="Group_916" data-name="Group 916">
        <path id="Path_3163" data-name="Path 3163" d="M429.84,459.135" fill="#218b89"/>
      </g>
      <g id="Group_917" data-name="Group 917">
        <path id="Path_3164" data-name="Path 3164" d="M422.819,460.337c.326-.24.8.32.566.651C423.057,461.294,422.542,460.657,422.819,460.337Z" fill="#218b89"/>
      </g>
      <g id="Group_918" data-name="Group 918">
        <path id="Path_3165" data-name="Path 3165" d="M421.238,461.379c.412-.061.622.9.256,1.036A1.147,1.147,0,0,1,421.238,461.379Z" fill="#218b89"/>
      </g>
      <g id="Group_919" data-name="Group 919">
        <path id="Path_3166" data-name="Path 3166" d="M352.793,467.983c.207-.248.764-.106.589.3a4.056,4.056,0,0,1-1.006,1.168c-.381.281-.733.861-1.264.587-.014-.115-.04-.343-.054-.455A22.738,22.738,0,0,1,352.793,467.983Z" fill="#218b89"/>
      </g>
      <g id="Group_920" data-name="Group 920">
        <path id="Path_3167" data-name="Path 3167" d="M358.356,472.1c.331,0,.284.614.105.8C358.137,472.894,358.177,472.29,358.356,472.1Z" fill="#218b89"/>
      </g>
      <g id="Group_921" data-name="Group 921">
        <path id="Path_3168" data-name="Path 3168" d="M368.8,476.509c.293-.107.526.4.4.654C368.895,477.273,368.644,476.756,368.8,476.509Z" fill="#218b89"/>
      </g>
    </g>
  </g>
</svg>
