<svg xmlns="http://www.w3.org/2000/svg" width="99.449" height="99" viewBox="0 0 99.449 99">
  <g id="Group_1899" data-name="Group 1899" transform="translate(-288.437 -2768.538)">
    <path id="Path_4476" data-name="Path 4476" d="M361.324,2768.538h20.292a3.426,3.426,0,0,1,2.762,1.551,3.1,3.1,0,0,1-.871,4.124,4.082,4.082,0,0,1-2.618.571q-4.906-.012-9.815,0c.806.762,1.6,1.537,2.409,2.3a49.359,49.359,0,0,1,14.049,29.33c.27,1.7.221,3.419.354,5.128v1c-.144,1.767-.107,3.55-.4,5.306a48.753,48.753,0,0,1-2.406,10.422,49.57,49.57,0,0,1-20.863,25.771,4.9,4.9,0,0,1-2.745,1.1,3.112,3.112,0,0,1-3.045-3.061,3.29,3.29,0,0,1,1.876-2.906,43.23,43.23,0,0,0,8.69-67.834c-1.185-1.288-2.6-2.336-3.9-3.5.309,3.544.635,7.088.954,10.631a12.008,12.008,0,0,1,.1,2.109,3.1,3.1,0,0,1-5.381,1.661,3.213,3.213,0,0,1-.8-2.024c-.544-6.07-1.111-12.14-1.643-18.211A3.138,3.138,0,0,1,361.324,2768.538Z" fill="#fff"/>
    <path id="Path_4477" data-name="Path 4477" d="M312.262,2782.011a4.975,4.975,0,0,1,2.587-1.088,3.113,3.113,0,0,1,3.024,2.181,3.166,3.166,0,0,1-1.581,3.693,43.771,43.771,0,0,0-13.944,12.963,44.409,44.409,0,0,0-6.89,16.575,42.658,42.658,0,0,0,11.827,38.238,49.974,49.974,0,0,0,4.073,3.645q-.547-5.978-1.082-11.959a3.146,3.146,0,0,1,1.057-2.719,3.125,3.125,0,0,1,5.122,2.164c.536,5.789,1.047,11.582,1.579,17.371a4.875,4.875,0,0,1-.167,2.607,3.155,3.155,0,0,1-2.688,1.856H294.528a3.141,3.141,0,0,1-2.912-2.9,3.1,3.1,0,0,1,3.021-3.272c3.577-.031,7.157,0,10.735-.013q-1.148-1.1-2.306-2.187a48.853,48.853,0,0,1-14.523-32.237c-.015-.735-.06-1.468-.106-2.2v-1.162c.157-1.647.1-3.31.38-4.946a49.934,49.934,0,0,1,23.445-36.6Z" fill="#fff"/>
    <g id="Group_1898" data-name="Group 1898">
      <path id="Path_4478" data-name="Path 4478" d="M335.166,2787.257a31.5,31.5,0,0,1,13.119,1.541,31.122,31.122,0,0,1,18.159,16.368,30.76,30.76,0,0,1,0,25.742,31.089,31.089,0,0,1-58.178-4.737,30.733,30.733,0,0,1,3.073-23.6,31.236,31.236,0,0,1,23.827-15.314Zm2.28,9.227a3.114,3.114,0,0,0-2.323,2.835c-.037,1.272,0,2.545-.013,3.817a9.476,9.476,0,0,0-5.561,5.37,9.247,9.247,0,0,0,8.008,12.562,4.736,4.736,0,0,1,2.278.526,3.079,3.079,0,0,1-1.472,5.708c-2.142.048-4.287-.01-6.429.027a3.085,3.085,0,0,0-.686,6.079,32.225,32.225,0,0,0,3.86.1c.017,1.119-.033,2.243.025,3.364a3.1,3.1,0,0,0,6.173-.1c.041-1.277.007-2.555.013-3.831a9.533,9.533,0,0,0,5.421-5.023,9.2,9.2,0,0,0-.532-8.415,9.311,9.311,0,0,0-6.5-4.417c-.783-.106-1.581-.1-2.352-.278a3.082,3.082,0,0,1,.8-6.046c2.139-.035,4.277.019,6.414-.024a3.084,3.084,0,0,0,.577-6.085,34.876,34.876,0,0,0-3.825-.091c-.033-1.224.074-2.455-.066-3.675A3.111,3.111,0,0,0,337.446,2796.484Z" fill="#fff"/>
    </g>
  </g>
</svg>
