<svg xmlns="http://www.w3.org/2000/svg" width="112.253" height="84.423" viewBox="0 0 112.253 84.423">
  <g id="Group_1895" data-name="Group 1895" transform="translate(-960.7 -2781.615)">
    <g id="Group_1894" data-name="Group 1894">
      <path id="Path_4468" data-name="Path 4468" d="M1033.79,2782.48a7.34,7.34,0,0,1,5.6-.563,22.33,22.33,0,0,1,5.61,2.7q13.2,7.577,26.392,15.163c0,1.239,0,2.477-.008,3.716.032.2-.195.265-.318.356q-3.4,1.942-6.786,3.9a.178.178,0,0,0-.06.341,16.53,16.53,0,0,1,8.657,11.532,19.141,19.141,0,0,1,.052,2.709,4.243,4.243,0,0,1-2,3.3q-34.668,19.926-69.335,39.854a5.042,5.042,0,0,1-4.268.156,17.023,17.023,0,0,1-2.794-1.429q-9.9-5.686-19.8-11.379a30.159,30.159,0,0,1-3.516-2.2,28.486,28.486,0,0,1-8.685-11.659,21.663,21.663,0,0,1-1.754-10.162,8.863,8.863,0,0,1,2.4-5.531,5.955,5.955,0,0,1,1.36-1Q999.16,2802.382,1033.79,2782.48Zm-1.762,4.918q-29.476,16.919-58.931,33.87c-.573.35-1.177.644-1.726,1.031.656.309,1.324.6,1.951.964q14.287,8.213,28.577,16.423,32.879-18.869,65.736-37.771c.111-.045.341-.218.123-.3q-11.921-6.846-23.842-13.69a12.183,12.183,0,0,0-6.31-2.2A10.265,10.265,0,0,0,1032.028,2787.4ZM1001.9,2843.6q-8.748-5.037-17.5-10.058c-.157-.075-.343-.235-.514-.094-2.253,1.277-4.489,2.585-6.742,3.866a2.006,2.006,0,0,0-.418.322q9.543,5.463,19.069,10.956a16.167,16.167,0,0,1,5.451,5.466,14.965,14.965,0,0,1,2.284,6.355c1.293-.64,2.515-1.42,3.775-2.124q28.911-16.614,57.819-33.232a11.99,11.99,0,0,0,3.559-2.787,5.106,5.106,0,0,0,.5-4.985,9.632,9.632,0,0,0-4.135-4.816c-1.51-.849-2.991-1.75-4.517-2.575Q1031.235,2826.794,1001.9,2843.6Zm-36.261-16.131a7.51,7.51,0,0,0-1.519,4.88,18.3,18.3,0,0,0,2.581,8.783,19.8,19.8,0,0,0,4.612,5.564,21.421,21.421,0,0,0,3.4,2.2q10.022,5.752,20.037,11.515a8.582,8.582,0,0,0,2.715,1.228,2.229,2.229,0,0,0,2.118-.625,3.358,3.358,0,0,0,.424-2.905,9.5,9.5,0,0,0-4.2-5.575q-11.289-6.5-22.586-12.989c0-1.162.02-2.323.023-3.484.01-.2-.025-.474.218-.551,2.389-1.378,4.788-2.742,7.171-4.132-2.251-1.277-4.49-2.572-6.735-3.857a9.149,9.149,0,0,0-4.728-1.6A4.512,4.512,0,0,0,965.637,2827.473Z" fill="#fff"/>
    </g>
    <path id="Path_4469" data-name="Path 4469" d="M1035.616,2791.47a10.821,10.821,0,0,1,1.134-.6,8.259,8.259,0,0,1,1.188.652c.839.523,1.721.979,2.523,1.556q-14.6,8.2-29.235,16.356c-.17.09-.378.207-.558.071-.915-.529-1.813-1.088-2.73-1.614a3.028,3.028,0,0,1-.753-.532Q1021.4,2799.423,1035.616,2791.47Z" fill="#fff"/>
    <path id="Path_4470" data-name="Path 4470" d="M1026.286,2805.229c5.974-3.324,11.929-6.685,17.911-9.992,1.217.744,2.46,1.447,3.667,2.206-1.09.73-2.283,1.294-3.414,1.958q-12.987,7.26-25.974,14.52c-.22.183-.454-.052-.65-.152-1.071-.671-2.2-1.26-3.236-1.977C1018.465,2809.564,1022.4,2807.429,1026.286,2805.229Z" fill="#fff"/>
    <path id="Path_4471" data-name="Path 4471" d="M1051.389,2799.751c.255-.2.5.095.728.2,1.039.661,2.147,1.217,3.152,1.925-2.385,1.4-4.827,2.7-7.231,4.069-7.463,4.156-14.9,8.348-22.375,12.493-1.187-.76-2.439-1.415-3.615-2.191a1.37,1.37,0,0,1,.334-.293Q1036.89,2807.858,1051.389,2799.751Z" fill="#fff"/>
    <path id="Path_4472" data-name="Path 4472" d="M984.327,2820.125c6.364-3.524,12.694-7.11,19.063-10.627q8.947,5.3,17.881,10.624a3.528,3.528,0,0,1,.617.435c-6.333,3.545-12.679,7.067-19,10.632-5.7-3.343-11.355-6.747-17.037-10.114A15.567,15.567,0,0,1,984.327,2820.125Z" fill="#fff"/>
    <path id="Path_4473" data-name="Path 4473" d="M1060.312,2816.431c.275-.217.563.079.814.193a8.8,8.8,0,0,1,2.007,1.343,1.11,1.11,0,0,1,.216,1.229,2.642,2.642,0,0,1-1.357,1.256q-25.756,14.8-51.511,29.607c-1.29.719-2.544,1.508-3.856,2.184a33.218,33.218,0,0,0-2.39-3.557c4.21-2.472,8.465-4.872,12.692-7.316Q1038.617,2828.9,1060.312,2816.431Z" fill="#fff"/>
  </g>
</svg>
