<svg xmlns="http://www.w3.org/2000/svg" width="85.816" height="97.384" viewBox="0 0 85.816 97.384">
  <g id="Group_1398" data-name="Group 1398" transform="translate(-1200.952 -2604.302)">
    <g id="Group_1397" data-name="Group 1397">
      <path id="Path_3796" data-name="Path 3796" d="M1242.338,2604.867c.692-.191,1.451-.9,2.171-.376q21.109,9.09,42.248,18.093c.005,6.677.027,13.348-.011,20.025a66.641,66.641,0,0,1-12.263,35.222,67.758,67.758,0,0,1-30.558,23.854,66.992,66.992,0,0,1-33.476-28.136,65.265,65.265,0,0,1-9.476-35.3c.011-5.226-.011-10.452.011-15.672C1214.785,2616.715,1228.553,2610.769,1242.338,2604.867Zm-13.277,20.554c-2.739,4.74-1.55,10.375-1.8,15.568-1.631.038-3.376-.174-4.865.649a6.134,6.134,0,0,0-3.153,5.859c.022,8.171-.044,16.348.032,24.525a5.945,5.945,0,0,0,5.848,5.864c12.164.033,24.334,0,36.5.016a6.791,6.791,0,0,0,5.373-2.013,7.038,7.038,0,0,0,1.506-4.865c-.017-7.806,0-15.612-.006-23.418.033-2.215-.791-4.642-2.82-5.782-1.56-.971-3.442-.835-5.2-.829-.219-4.473.643-9.11-.9-13.414a16.657,16.657,0,0,0-30.52-2.16Z" fill="#73b3b4"/>
    </g>
    <path id="Path_3797" data-name="Path 3797" d="M1236.016,2630.658c.992-4.73,6.676-7.217,11.051-5.783a8.192,8.192,0,0,1,5.319,6.819c.049,3.1-.011,6.2.021,9.306h-16.473C1235.994,2637.553,1235.825,2634.094,1236.016,2630.658Z" fill="#73b3b4"/>
    <path id="Path_3798" data-name="Path 3798" d="M1241.47,2651.282c2.641-1.1,6.192-.272,7.534,2.4,1.091,3.032.245,7.342-3.3,8.231.568,2.853,1.173,5.7,1.839,8.537-2.641.011-5.286.005-7.932,0,.611-2.837,1.233-5.673,1.844-8.51a7.043,7.043,0,0,1-2.662-1.98C1236.676,2657.141,1238,2652.313,1241.47,2651.282Z" fill="#73b3b4"/>
  </g>
</svg>
