<svg xmlns="http://www.w3.org/2000/svg" width="85.389" height="87.335" viewBox="0 0 85.389 87.335">
  <g id="Group_1390" data-name="Group 1390" transform="translate(-1201.379 -2124)">
    <g id="Group_1389" data-name="Group 1389">
      <g id="Group_1388" data-name="Group 1388">
        <path id="Path_3790" data-name="Path 3790" d="M1201.961,2124.856a2.433,2.433,0,0,1,1.87-.855q40.242,0,80.483,0a2.433,2.433,0,0,1,2.452,2.479v61.513a3.777,3.777,0,0,1-.149,1.412,2.441,2.441,0,0,1-1.7,1.527,4.465,4.465,0,0,1-1.072.07c-1.151,0-2.3,0-3.452,0a20.01,20.01,0,0,0-.988-7.263q.008-25.857,0-51.719a4.02,4.02,0,0,0-.026-.668.734.734,0,0,0-.754-.536H1210c-.323.014-.7-.068-.969.147a.758.758,0,0,0-.287.654q0,25.9,0,51.794a.737.737,0,0,0,.777.779h33.135q.682,3.393,1.209,6.815h-39.558a4.478,4.478,0,0,1-1.066-.068,2.442,2.442,0,0,1-1.731-1.586,3.652,3.652,0,0,1-.127-1.275v-61.6A2.444,2.444,0,0,1,1201.961,2124.856Zm80.564,30.843a1.906,1.906,0,1,0,2.295,1.036A1.912,1.912,0,0,0,1282.525,2155.7Z" fill="#73b3b4"/>
      </g>
      <path id="Path_3791" data-name="Path 3791" d="M1240.359,2149.807a8.545,8.545,0,0,1,10.7,13.128c-.538-1.524-1.072-3.051-1.647-4.562a16.345,16.345,0,0,0-1.114-2.356,4,4,0,0,0-1.683-1.721,3.154,3.154,0,0,0-2.286-.055,4.617,4.617,0,0,0-2.237,1.334,4.194,4.194,0,0,0-.846,2.851,24.042,24.042,0,0,0,.776,4.576c.178.774.367,1.544.551,2.318a8.541,8.541,0,0,1-2.217-15.513Z" fill="#73b3b4"/>
      <path id="Path_3792" data-name="Path 3792" d="M1243.734,2155.792a3.83,3.83,0,0,1,1.93-.511,1.954,1.954,0,0,1,1.356.985,16.935,16.935,0,0,1,1.643,3.571c1.81,5,3.509,10.045,5.218,15.083a4.58,4.58,0,0,1-.092-2.13,1.981,1.981,0,0,1,.346-.824,4.225,4.225,0,0,1,3.143-1.73,4.9,4.9,0,0,1,3.571,1.352,5.533,5.533,0,0,1,3.39-1.053,3.749,3.749,0,0,1,1.975.846,12.038,12.038,0,0,1,1.594,1.461,4.328,4.328,0,0,1,3.127-.321,3.526,3.526,0,0,1,1.72,1.281,36.568,36.568,0,0,1,4.231,7.067c.505,1.105,1,2.218,1.4,3.368a17.982,17.982,0,0,1,.906,5.493,34.379,34.379,0,0,1-.342,4.785,7.916,7.916,0,0,0,.127,2.182c.343,2.253.8,4.486,1.249,6.719a3.527,3.527,0,0,1-.842,1.223,23.32,23.32,0,0,1-6.139,4.6,16.746,16.746,0,0,1-8.53,2.073,12.287,12.287,0,0,1-4.261-.975,24.261,24.261,0,0,0-4.438-6.3,58.13,58.13,0,0,0-5.582-4.381,21.812,21.812,0,0,1-1.806-1.442,7.042,7.042,0,0,1-1.557-2.549c-.618-1.558-1.168-3.145-1.906-4.653a2.568,2.568,0,0,1-.189-.8q-.366-2.285-.792-4.559a16.581,16.581,0,0,0-.681-2.858,11.889,11.889,0,0,0-2.059-3.273,2.621,2.621,0,0,1,1.377-1.585,2.741,2.741,0,0,1,2.094.121,9.509,9.509,0,0,1,2.662,1.83c-.959-3.288-1.763-6.618-2.6-9.938-.76-3.072-1.548-6.139-2.211-9.234a9.772,9.772,0,0,1-.245-3.171A2.289,2.289,0,0,1,1243.734,2155.792Z" fill="#73b3b4"/>
    </g>
  </g>
</svg>
