<svg xmlns="http://www.w3.org/2000/svg" width="82.807" height="86.66" viewBox="0 0 82.807 86.66">
  <g id="Group_166" data-name="Group 166" transform="translate(-792.844 -168.222)">
    <path id="Path_728" data-name="Path 728" d="M854.707,177.5q4.262-4.637,8.517-9.279,0,11.876,0,23.75-10.9,0-21.792,0,3.954-4.317,7.913-8.627a33.719,33.719,0,0,0-48.46,24.986,33.756,33.756,0,0,0,60.606,25.091,33.585,33.585,0,0,0,3.686-33.354q3.413-1.735,6.823-3.475a41.243,41.243,0,0,1-1.128,36.208,41.481,41.481,0,1,1-16.166-55.3Z" fill="#fff"/>
  </g>
</svg>
