<svg xmlns="http://www.w3.org/2000/svg" width="92.823" height="92.823" viewBox="0 0 92.823 92.823">
  <g id="Group_1396" data-name="Group 1396" transform="translate(-1193.944 -2446.059)">
    <g id="Group_1395" data-name="Group 1395">
      <g id="Group_1393" data-name="Group 1393">
        <path id="Path_3794" data-name="Path 3794" d="M1235.746,2446.059h8.836a5.872,5.872,0,0,1,4.146,2.148,6.123,6.123,0,0,1,1.246,2.926c.352,2.053.683,4.11,1.046,6.161,1.124.4,2.261.774,3.374,1.207,1.068.468,2.11,1,3.173,1.476,1.872-1.322,3.723-2.674,5.611-3.974a5.744,5.744,0,0,1,7.1.731c1.95,1.919,3.879,3.863,5.807,5.806a5.728,5.728,0,0,1,1.59,5.111,6.745,6.745,0,0,1-1.333,2.807c-1.158,1.61-2.306,3.225-3.465,4.835.474,1.051,1,2.081,1.458,3.14.412,1.053.763,2.128,1.162,3.187,2.259.4,4.529.74,6.781,1.173a5.724,5.724,0,0,1,4.485,5.238v8.856a5.794,5.794,0,0,1-4.884,5.339c-2.138.37-4.281.709-6.418,1.073q-.432,1.183-.856,2.372c-.473,1.374-1.2,2.639-1.764,3.977,1.231,1.681,2.422,3.391,3.637,5.084a6.134,6.134,0,0,1,1.207,2.922,5.788,5.788,0,0,1-1.622,4.734c-1.554,1.585-3.138,3.138-4.7,4.714a9.075,9.075,0,0,1-2.961,2.315,5.736,5.736,0,0,1-5.473-.6c-1.808-1.273-3.6-2.567-5.4-3.851q-1.094.5-2.174,1.016c-1.338.659-2.777,1.064-4.161,1.609-.4,2.272-.738,4.553-1.176,6.814a5.811,5.811,0,0,1-5.236,4.479h-8.842a5.82,5.82,0,0,1-5.366-4.9c-.368-2.13-.715-4.264-1.072-6.4-1.051-.406-2.125-.749-3.171-1.168-1-.431-1.974-.923-2.973-1.358-1.889,1.342-3.764,2.709-5.673,4.023a5.729,5.729,0,0,1-6.978-.643c-1.9-1.837-3.745-3.739-5.629-5.6a6.175,6.175,0,0,1-1.849-3.154,5.782,5.782,0,0,1,.986-4.611c1.244-1.755,2.511-3.492,3.76-5.241-.48-1.039-1-2.058-1.468-3.1-.421-1.055-.785-2.132-1.186-3.194-2.288-.414-4.59-.756-6.873-1.2a5.8,5.8,0,0,1-4.511-5.26v-8.833a5.934,5.934,0,0,1,1.587-3.609,5.869,5.869,0,0,1,3.281-1.726c2.11-.4,4.252-.66,6.351-1.11.517-1.22.827-2.522,1.387-3.725.4-.867.821-1.723,1.195-2.6q-1.913-2.649-3.793-5.319a5.817,5.817,0,0,1-.988-4.69,5.9,5.9,0,0,1,1.651-2.925c1.723-1.729,3.46-3.444,5.182-5.172a7.314,7.314,0,0,1,2.152-1.637,5.776,5.776,0,0,1,5.727.533q2.67,1.9,5.319,3.833c1.084-.486,2.132-1.047,3.225-1.514,1.021-.4,2.058-.756,3.086-1.135.377-2.107.718-4.219,1.082-6.326a6.084,6.084,0,0,1,1.324-3.009A5.9,5.9,0,0,1,1235.746,2446.059Zm.121,5.321c-.2.1-.208.37-.272.562q-.657,3.837-1.31,7.678a2.913,2.913,0,0,1-.8,1.684,4.974,4.974,0,0,1-2.2,1,30.123,30.123,0,0,0-5.468,2.212,12.163,12.163,0,0,1-2.405,1.183,2.838,2.838,0,0,1-2.314-.576c-2.037-1.456-4.082-2.906-6.118-4.368a1.459,1.459,0,0,0-.717-.331,2.236,2.236,0,0,0-.591.469c-1.773,1.795-3.575,3.563-5.348,5.358a.607.607,0,0,0-.09.872c1.519,2.162,3.062,4.307,4.59,6.465a2.921,2.921,0,0,1,.629,1.822,4.786,4.786,0,0,1-.785,2.057,30.806,30.806,0,0,0-2.261,5.227c-.273.816-.433,1.67-.759,2.469a2.666,2.666,0,0,1-2.02,1.56c-2.656.473-5.326.879-7.982,1.359-.479.051-.488.588-.475.957.014,2.537-.013,5.077.012,7.613a.575.575,0,0,0,.551.618c2.655.468,5.318.894,7.974,1.365a2.7,2.7,0,0,1,1.867,1.235,15,15,0,0,1,.878,2.556,30.9,30.9,0,0,0,2.462,5.526,4.131,4.131,0,0,1,.741,2.109,2.942,2.942,0,0,1-.622,1.7c-1.5,2.117-3.022,4.222-4.516,6.345a.6.6,0,0,0,.067.874c1.8,1.822,3.628,3.622,5.432,5.443a1.415,1.415,0,0,0,.58.406,4.575,4.575,0,0,0,1.191-.727c1.942-1.38,3.876-2.769,5.825-4.137a2.753,2.753,0,0,1,3.017-.156,32.5,32.5,0,0,0,7.038,2.962,4.181,4.181,0,0,1,2.049.988,3.043,3.043,0,0,1,.745,1.673q.636,3.816,1.274,7.631c.033.332.247.647.62.609,2.482.026,4.964,0,7.446.015a1.757,1.757,0,0,0,.995-.165,2.363,2.363,0,0,0,.231-.792c.386-2.37.8-4.734,1.192-7.1a3.317,3.317,0,0,1,.769-1.867,4.191,4.191,0,0,1,2.042-.985,29.739,29.739,0,0,0,6.8-2.85,3.685,3.685,0,0,1,1.924-.63,3.068,3.068,0,0,1,1.812.716c2.042,1.461,4.091,2.911,6.134,4.373.246.165.6.413.859.112,1.9-1.849,3.757-3.751,5.642-5.62a.648.648,0,0,0,.138-.952c-1.369-1.944-2.752-3.878-4.128-5.816a3.974,3.974,0,0,1-1.032-2.235,3.624,3.624,0,0,1,.624-1.933,30.234,30.234,0,0,0,2.9-6.962,3.782,3.782,0,0,1,.946-1.885,4.175,4.175,0,0,1,2.411-.865c2.335-.395,4.676-.765,7.009-1.178.4-.031.533-.437.511-.782.008-2.476-.005-4.955.006-7.431a1.328,1.328,0,0,0-.174-.83,3.273,3.273,0,0,0-.992-.254c-2.353-.388-4.7-.794-7.056-1.188a3.025,3.025,0,0,1-1.8-.834,4.367,4.367,0,0,1-.874-1.9,30.974,30.974,0,0,0-3.058-7.208,2.742,2.742,0,0,1,.058-3.046c1.537-2.2,3.118-4.375,4.659-6.574a.6.6,0,0,0-.056-.87q-2.8-2.82-5.62-5.62a.569.569,0,0,0-.859-.033c-2.187,1.552-4.346,3.144-6.538,4.687a2.72,2.72,0,0,1-2.961.085,33.39,33.39,0,0,0-5.321-2.462c-1.067-.433-2.213-.633-3.285-1.05a2.651,2.651,0,0,1-1.571-2.088c-.456-2.6-.871-5.2-1.322-7.8a.588.588,0,0,0-.658-.576c-2.417-.02-4.835.005-7.252-.011A2.648,2.648,0,0,0,1235.867,2451.38Z" fill="#73b3b4"/>
      </g>
      <g id="Group_1394" data-name="Group 1394">
        <path id="Path_3795" data-name="Path 3795" d="M1238.193,2472.559a20.059,20.059,0,1,1-6.7,1.967A20.063,20.063,0,0,1,1238.193,2472.559Zm1.507,5.134a14.8,14.8,0,1,0,9.46,2.89A14.744,14.744,0,0,0,1239.7,2477.693Z" fill="#73b3b4"/>
      </g>
    </g>
  </g>
</svg>
