<svg xmlns="http://www.w3.org/2000/svg" width="72.73" height="74.02" viewBox="0 0 72.73 74.02">
  <g id="Group_1392" data-name="Group 1392" transform="translate(-1214.037 -2289)">
    <g id="Group_1391" data-name="Group 1391">
      <path id="Path_3793" data-name="Path 3793" d="M1262.473,2294.778a13.383,13.383,0,0,1,24.156,5.137,14.19,14.19,0,0,1-.41,6.158,13.318,13.318,0,0,1-10.982,9.148c-1.911.07-3.913.265-5.737-.444a23.651,23.651,0,0,1-3.413-1.619c-2.007,1.218-4.173,2.146-6.208,3.314-5.029,2.6-10.064,5.2-15.07,7.842-1.454.692-2.874,1.461-4.279,2.248,6.161,3.434,12.448,6.639,18.65,9.995,1.722.9,3.391,1.907,5.173,2.683.76.557,1.43-.186,2.058-.5a13.5,13.5,0,0,1,7.677-1.984,13.752,13.752,0,0,1,8.249,3.547,12.713,12.713,0,0,1,4.246,9.885c.112,5.886-4.441,11.1-9.977,12.63a30.138,30.138,0,0,1-5.947.113,14.323,14.323,0,0,1-7.665-4.594,13.569,13.569,0,0,1-3.043-8.472c-2.822-1.7-5.784-3.16-8.683-4.724-2.158-1.048-4.183-2.345-6.331-3.412-.921-.443-1.794-.98-2.709-1.435-2.062-.97-3.905-2.354-6.007-3.248-.225-.088-.492-.211-.72-.06a16.192,16.192,0,0,1-4.043,1.875,15.077,15.077,0,0,1-8.467-.392,13.087,13.087,0,0,1-2.183-23.859,13.792,13.792,0,0,1,11.593-.784,12.575,12.575,0,0,1,3.825,2.227c2.781-1.481,5.591-2.9,8.39-4.354,1.946-1.1,4.036-1.921,5.952-3.081,1.234-.726,2.567-1.254,3.844-1.893,1.925-.945,3.77-2.045,5.7-2.97A14.092,14.092,0,0,1,1262.473,2294.778Z" fill="#73b3b4"/>
    </g>
  </g>
</svg>
